<svg width="32" height="32" viewBox="0 0 32 32" fill="none" xmlns="http://www.w3.org/2000/svg">
<path d="M22.3639 0.016014C22.2959 -0.059986 19.8459 0.0460141 17.7139 2.36001C15.5819 4.67201 15.9099 7.32401 15.9579 7.39201C16.0059 7.46001 18.9979 7.56601 20.9079 4.87601C22.8179 2.18601 22.4319 0.094014 22.3639 0.016014ZM28.9919 23.482C28.8959 23.29 24.3419 21.014 24.7659 16.638C25.1899 12.26 28.1159 11.06 28.1619 10.93C28.2079 10.8 26.9678 9.35001 25.6539 8.61601C24.6891 8.09852 23.6213 7.80203 22.5279 7.74801C22.3119 7.74201 21.5619 7.55801 20.0199 7.98001C19.0039 8.25801 16.7139 9.15801 16.0839 9.19401C15.4519 9.23001 13.5719 8.15001 11.5499 7.86401C10.2559 7.61401 8.88385 8.12601 7.90185 8.52001C6.92185 8.91201 5.05785 10.028 3.75385 12.994C2.44985 15.958 3.13185 20.654 3.61985 22.114C4.10785 23.572 4.86985 25.962 6.16585 27.706C7.31785 29.674 8.84585 31.04 9.48385 31.504C10.1219 31.968 11.9219 32.276 13.1699 31.638C14.1739 31.022 15.9859 30.668 16.7019 30.694C17.4159 30.72 18.8239 31.002 20.2659 31.772C21.4079 32.166 22.4879 32.002 23.5699 31.562C24.6519 31.12 26.2179 29.444 28.0459 26.046C28.7399 24.466 29.0559 23.612 28.9919 23.482Z" fill="black"/>
<path d="M22.3639 0.016014C22.2959 -0.059986 19.8459 0.0460141 17.7139 2.36001C15.5819 4.67201 15.9099 7.32401 15.9579 7.39201C16.0059 7.46001 18.9979 7.56601 20.9079 4.87601C22.8179 2.18601 22.4319 0.094014 22.3639 0.016014ZM28.9919 23.482C28.8959 23.29 24.3419 21.014 24.7659 16.638C25.1899 12.26 28.1159 11.06 28.1619 10.93C28.2079 10.8 26.9678 9.35001 25.6539 8.61601C24.6891 8.09852 23.6213 7.80203 22.5279 7.74801C22.3119 7.74201 21.5619 7.55801 20.0199 7.98001C19.0039 8.25801 16.7139 9.15801 16.0839 9.19401C15.4519 9.23001 13.5719 8.15001 11.5499 7.86401C10.2559 7.61401 8.88385 8.12601 7.90185 8.52001C6.92185 8.91201 5.05785 10.028 3.75385 12.994C2.44985 15.958 3.13185 20.654 3.61985 22.114C4.10785 23.572 4.86985 25.962 6.16585 27.706C7.31785 29.674 8.84585 31.04 9.48385 31.504C10.1219 31.968 11.9219 32.276 13.1699 31.638C14.1739 31.022 15.9859 30.668 16.7019 30.694C17.4159 30.72 18.8239 31.002 20.2659 31.772C21.4079 32.166 22.4879 32.002 23.5699 31.562C24.6519 31.12 26.2179 29.444 28.0459 26.046C28.7399 24.466 29.0559 23.612 28.9919 23.482Z" fill="black"/>
</svg>
