<svg width="32" height="32" viewBox="0 0 32 32" fill="none" xmlns="http://www.w3.org/2000/svg">
<path d="M31.0906 13.1169C31.2788 14.1869 31.3669 15.2804 31.3669 16.368C31.3669 21.2357 29.6268 25.351 26.5991 28.1376H26.605C23.9536 30.5832 20.3146 32 15.9995 32C9.95006 32 4.41801 28.5902 1.70195 23.1875C-0.567313 18.6666 -0.567317 13.3403 1.70194 8.81945C4.418 3.41085 9.95006 0.00107819 15.9995 0.00107819C19.9736 -0.0459531 23.8125 1.44729 26.705 4.16335L22.1371 8.73126C20.4851 7.15572 18.2805 6.29739 15.9995 6.33267C11.8254 6.33267 8.28045 9.14867 7.01648 12.9406C6.34629 14.9276 6.34629 17.0793 7.01648 19.0664H7.02236C8.29221 22.8524 11.8313 25.6684 16.0053 25.6684C18.1629 25.6684 20.0148 25.1158 21.4492 24.1399H21.4433C23.1306 23.0229 24.2829 21.2651 24.6415 19.278H15.9995V13.1169H31.0906Z" fill="black"/>
</svg>
