<svg width="144" height="179" viewBox="0 0 144 179" fill="none" xmlns="http://www.w3.org/2000/svg">
<g clip-path="url(#clip0_106_325)">
<path d="M70.853 43.3327L34.3584 62.5513L52.6057 31.2835L70.8371 0" fill="#0E8CE9"/>
<path d="M72.5625 43.3327L109.057 62.5513L90.8256 31.2835L72.5783 0L72.5625 43.3327Z" fill="#045899"/>
<path d="M109.057 63.8146L71.6124 44.6592L34.374 63.8146L71.6124 82.749L109.057 63.8146Z" fill="#0E8CE9"/>
<path d="M0.664062 132.856V97.9092H8.07059V113.322H8.52954L21.127 97.9092H30.0053L17.0122 113.559L30.1636 132.856H21.3011L11.7106 118.486L8.07059 122.923V132.856H0.664062Z" fill="black"/>
<path d="M43.7894 133.362C41.0831 133.362 38.7726 132.809 36.826 131.719C34.8794 130.614 33.3917 129.066 32.3314 127.045C31.2869 125.024 30.7646 122.639 30.7646 119.876C30.7646 117.112 31.2869 114.806 32.3314 112.785C33.3759 110.748 34.8636 109.169 36.7627 108.032C38.6618 106.895 40.9091 106.326 43.4887 106.326C45.2137 106.326 46.8438 106.595 48.3314 107.147C49.8349 107.7 51.1484 108.521 52.2562 109.627C53.3641 110.732 54.2503 112.122 54.8833 113.78C55.5164 115.454 55.8171 117.396 55.8171 119.623V121.613H33.645V117.112H48.9644C48.9644 116.07 48.7429 115.138 48.2839 114.333C47.825 113.527 47.1919 112.896 46.4007 112.438C45.5935 111.98 44.6598 111.743 43.5995 111.743C42.5391 111.743 41.5104 111.995 40.6717 112.501C39.8171 113.006 39.1524 113.685 38.6776 114.538C38.2028 115.391 37.9496 116.322 37.9496 117.365V121.644C37.9496 122.939 38.187 124.06 38.6776 125.008C39.1682 125.955 39.8487 126.682 40.735 127.187C41.6212 127.692 42.6816 127.961 43.9002 127.961C44.7073 127.961 45.4511 127.85 46.1158 127.614C46.7805 127.377 47.366 127.045 47.8408 126.587C48.3156 126.129 48.6796 125.576 48.9328 124.913L55.6746 125.355C55.3265 126.966 54.6301 128.372 53.5856 129.572C52.5253 130.772 51.1801 131.704 49.5184 132.367C47.8566 133.03 45.9417 133.362 43.7894 133.362Z" fill="black"/>
<path d="M67.8766 117.696V132.841H60.5967V106.626H67.5443V111.253H67.8449C68.4305 109.721 69.3959 108.521 70.7727 107.621C72.1338 106.721 73.7955 106.279 75.7421 106.279C77.5621 106.279 79.1605 106.674 80.5057 107.479C81.8667 108.269 82.9112 109.406 83.6709 110.89C84.4305 112.359 84.7945 114.112 84.7945 116.149V132.841H77.5146V117.444C77.5146 115.833 77.1189 114.585 76.2802 113.685C75.4414 112.785 74.3019 112.327 72.8459 112.327C71.8647 112.327 70.9943 112.532 70.2505 112.959C69.5067 113.385 68.9211 113.985 68.5096 114.791C68.0982 115.596 67.8766 116.559 67.8608 117.68L67.8766 117.696Z" fill="black"/>
<path d="M97.819 117.696V132.841H90.5391V106.626H97.4866V111.253H97.7873C98.3729 109.721 99.3383 108.521 100.715 107.621C102.076 106.721 103.738 106.279 105.684 106.279C107.504 106.279 109.103 106.674 110.448 107.479C111.809 108.269 112.854 109.406 113.613 110.89C114.373 112.359 114.737 114.112 114.737 116.149V132.841H107.457V117.444C107.457 115.833 107.061 114.585 106.223 113.685C105.384 112.785 104.244 112.327 102.788 112.327C101.807 112.327 100.937 112.532 100.193 112.959C99.4491 113.385 98.8635 113.985 98.452 114.791C98.0405 115.596 97.819 116.559 97.8032 117.68L97.819 117.696Z" fill="black"/>
<path d="M124.012 142.679C123.094 142.679 122.223 142.616 121.416 142.474C120.609 142.332 119.944 142.158 119.422 141.937L121.068 136.504C121.922 136.773 122.698 136.915 123.378 136.931C124.075 136.946 124.66 136.789 125.167 136.457C125.673 136.11 126.085 135.541 126.401 134.72L126.829 133.614L117.412 106.658H125.072L130.516 125.908H130.785L136.277 106.658H143.984L133.776 135.699C133.285 137.104 132.621 138.336 131.782 139.394C130.943 140.452 129.883 141.258 128.617 141.826C127.351 142.395 125.8 142.695 123.996 142.695L124.012 142.679Z" fill="black"/>
<path d="M16.0315 150.543C15.8732 149.027 15.2085 147.827 14.0216 146.927C12.8346 146.027 11.347 145.585 9.54283 145.585C8.27675 145.585 7.15311 145.806 6.20356 146.232C5.254 146.658 4.49436 147.258 3.94045 148.032C3.40237 148.79 3.1175 149.675 3.1175 150.638C3.1175 151.349 3.27576 151.98 3.57646 152.517C3.87715 153.054 4.30445 153.512 4.8267 153.907C5.34896 154.286 5.93452 154.617 6.58338 154.902C7.23224 155.17 7.8811 155.407 8.52997 155.597L11.3945 156.418C12.2649 156.655 13.1353 156.955 14.0057 157.334C14.8762 157.713 15.6675 158.171 16.3954 158.739C17.1234 159.308 17.6932 159.987 18.1363 160.792C18.5794 161.597 18.801 162.577 18.801 163.698C18.801 165.151 18.4212 166.461 17.6773 167.614C16.9335 168.767 15.8415 169.683 14.433 170.362C13.0245 171.041 11.3312 171.373 9.36874 171.373C7.51711 171.373 5.90287 171.073 4.54184 170.457C3.18081 169.841 2.10465 168.988 1.32918 167.898C0.553706 166.809 0.11058 165.545 0.015625 164.108H2.54777C2.64273 165.182 2.9909 166.082 3.60811 166.825C4.22532 167.567 5.03244 168.135 6.02947 168.514C7.02651 168.893 8.13432 169.099 9.35291 169.099C10.7139 169.099 11.9167 168.877 12.977 168.419C14.0374 167.962 14.8762 167.33 15.4775 166.509C16.0789 165.688 16.3954 164.74 16.3954 163.65C16.3954 162.734 16.1581 161.961 15.6833 161.329C15.2085 160.697 14.5438 160.176 13.6892 159.75C12.8346 159.323 11.8376 158.944 10.7139 158.629L7.45381 157.681C5.31731 157.049 3.65559 156.165 2.48447 155.044C1.29752 153.923 0.711965 152.486 0.711965 150.748C0.711965 149.296 1.10761 148.001 1.88308 146.895C2.67438 145.79 3.73472 144.921 5.07992 144.29C6.42512 143.658 7.92858 143.358 9.60613 143.358C11.2837 143.358 12.803 143.674 14.1007 144.29C15.3984 144.906 16.4429 145.758 17.2026 146.848C17.9622 147.938 18.3737 149.169 18.437 150.543H16.0315Z" fill="black"/>
<path d="M32.5695 171.357C30.6704 171.357 29.0087 170.915 27.616 170.03C26.2233 169.146 25.1472 167.914 24.3875 166.335C23.6279 164.756 23.248 162.94 23.248 160.871C23.248 158.802 23.6279 156.986 24.3875 155.391C25.1472 153.796 26.1917 152.549 27.5369 151.633C28.8821 150.717 30.433 150.275 32.2055 150.275C33.3133 150.275 34.3895 150.48 35.4182 150.875C36.4469 151.27 37.3648 151.886 38.1877 152.723C39.0107 153.559 39.6595 154.586 40.1343 155.833C40.6091 157.081 40.8465 158.565 40.8465 160.271V161.44H24.8939V159.355H38.4251C38.4251 158.044 38.1561 156.86 37.6338 155.818C37.1116 154.775 36.3677 153.938 35.434 153.323C34.5003 152.707 33.4241 152.407 32.1897 152.407C30.892 152.407 29.7525 152.754 28.7713 153.449C27.7901 154.144 27.0146 155.044 26.4607 156.181C25.9068 157.318 25.6219 158.55 25.6219 159.892V161.14C25.6219 162.766 25.9068 164.172 26.4607 165.388C27.0146 166.603 27.8217 167.535 28.8662 168.198C29.9108 168.862 31.1294 169.193 32.5537 169.193C33.5191 169.193 34.3737 169.051 35.1017 168.735C35.8297 168.435 36.4469 168.025 36.9533 167.519C37.4597 167.014 37.8395 166.446 38.0928 165.845L40.34 166.572C40.0235 167.425 39.5171 168.214 38.8207 168.941C38.1244 169.667 37.2382 170.251 36.1936 170.678C35.1491 171.12 33.9305 171.341 32.5695 171.341V171.357Z" fill="black"/>
<path d="M53.8397 179C52.447 179 51.2284 178.826 50.1839 178.463C49.1394 178.1 48.2531 177.61 47.5409 176.994C46.8288 176.379 46.259 175.684 45.8634 174.91L47.81 173.631C48.1107 174.136 48.4905 174.641 48.9811 175.147C49.4717 175.636 50.1206 176.047 50.9119 176.379C51.7031 176.71 52.6844 176.868 53.8397 176.868C55.6438 176.868 57.1156 176.41 58.2234 175.51C59.3312 174.61 59.8851 173.204 59.8851 171.309V166.714H59.6794C59.4104 167.33 59.0147 167.946 58.4925 168.562C57.9702 169.177 57.3055 169.683 56.4826 170.093C55.6596 170.504 54.6309 170.709 53.3965 170.709C51.7665 170.709 50.3105 170.314 49.0602 169.509C47.7941 168.704 46.7971 167.551 46.085 166.051C45.357 164.55 45.0088 162.766 45.0088 160.681C45.0088 158.597 45.357 156.813 46.0691 155.233C46.7813 153.67 47.7625 152.454 49.0286 151.57C50.2946 150.685 51.7665 150.259 53.4598 150.259C54.7101 150.259 55.7546 150.48 56.5775 150.922C57.4005 151.364 58.0652 151.901 58.5716 152.549C59.078 153.196 59.4579 153.828 59.7427 154.428H59.9801V150.543H62.2907V171.451C62.2907 173.173 61.9267 174.594 61.1829 175.715C60.4391 176.836 59.442 177.658 58.1759 178.195C56.9099 178.732 55.4697 179 53.8555 179H53.8397ZM53.6814 168.562C54.9949 168.562 56.1186 168.246 57.0523 167.614C57.986 166.982 58.6982 166.067 59.1888 164.882C59.6794 163.698 59.9326 162.292 59.9326 160.65C59.9326 159.008 59.6952 157.649 59.2046 156.418C58.714 155.186 58.0177 154.207 57.084 153.496C56.1502 152.786 55.0266 152.422 53.6814 152.422C52.3362 152.422 51.1651 152.786 50.2155 153.528C49.2818 154.27 48.5696 155.249 48.0948 156.497C47.6201 157.744 47.3827 159.134 47.3827 160.65C47.3827 162.166 47.6201 163.587 48.1107 164.772C48.6013 165.956 49.3134 166.888 50.2472 167.551C51.1809 168.214 52.3362 168.546 53.6814 168.546V168.562Z" fill="black"/>
<path d="M81.5349 163.145V150.543H83.9088V170.93H81.5349V167.551H81.345C80.8702 168.593 80.1105 169.462 79.066 170.157C78.0215 170.851 76.7554 171.199 75.2678 171.199C73.9701 171.199 72.8148 170.915 71.8019 170.346C70.7891 169.778 69.9978 168.941 69.428 167.835C68.8583 166.73 68.5576 165.372 68.5576 163.761V150.559H70.9315V163.619C70.9315 165.214 71.4063 166.493 72.34 167.456C73.2737 168.42 74.4923 168.909 75.9641 168.909C76.882 168.909 77.7683 168.688 78.6229 168.246C79.4775 167.804 80.1738 167.156 80.7277 166.303C81.2817 165.451 81.5507 164.393 81.5507 163.145H81.5349Z" fill="black"/>
<path d="M90.1602 170.93V150.543H92.4549V153.67H92.629C93.0405 152.643 93.7526 151.806 94.7655 151.175C95.7784 150.543 96.9336 150.227 98.2155 150.227C98.4055 150.227 98.627 150.227 98.8644 150.227C99.1018 150.227 99.3075 150.243 99.4658 150.259V152.659C99.355 152.643 99.1809 152.612 98.9119 152.58C98.6428 152.549 98.358 152.533 98.0415 152.533C96.9811 152.533 96.0316 152.754 95.2086 153.196C94.3857 153.638 93.721 154.254 93.2462 155.044C92.7714 155.833 92.534 156.734 92.534 157.744V170.915H90.1602V170.93Z" fill="black"/>
<path d="M110.813 171.357C109.056 171.357 107.49 170.915 106.144 170.015C104.799 169.114 103.739 167.883 102.979 166.303C102.22 164.724 101.84 162.892 101.84 160.824C101.84 158.755 102.22 156.892 102.979 155.312C103.739 153.717 104.799 152.486 106.144 151.601C107.49 150.717 109.056 150.275 110.813 150.275C112.57 150.275 114.137 150.717 115.482 151.617C116.827 152.517 117.887 153.749 118.647 155.328C119.407 156.907 119.802 158.755 119.802 160.839C119.802 162.924 119.422 164.74 118.663 166.319C117.903 167.898 116.843 169.13 115.498 170.03C114.152 170.93 112.586 171.373 110.829 171.373L110.813 171.357ZM110.813 169.193C112.237 169.193 113.44 168.814 114.421 168.056C115.403 167.298 116.146 166.288 116.669 165.024C117.175 163.761 117.428 162.371 117.428 160.839C117.428 159.308 117.175 157.918 116.669 156.639C116.162 155.36 115.418 154.349 114.421 153.575C113.44 152.801 112.237 152.422 110.813 152.422C109.389 152.422 108.202 152.801 107.221 153.575C106.239 154.349 105.48 155.36 104.973 156.639C104.467 157.918 104.214 159.308 104.214 160.839C104.214 162.371 104.467 163.761 104.973 165.024C105.48 166.288 106.224 167.298 107.221 168.056C108.202 168.814 109.405 169.193 110.829 169.193H110.813Z" fill="black"/>
<path d="M138.714 155.012L136.546 155.628C136.34 155.012 136.024 154.46 135.644 153.97C135.248 153.48 134.742 153.086 134.124 152.786C133.491 152.486 132.732 152.343 131.798 152.343C130.421 152.343 129.282 152.675 128.395 153.323C127.509 153.986 127.066 154.823 127.066 155.865C127.066 156.734 127.367 157.444 127.984 157.997C128.585 158.534 129.535 158.976 130.801 159.292L133.887 160.05C135.596 160.46 136.878 161.124 137.733 162.024C138.587 162.924 139.015 164.061 139.015 165.419C139.015 166.572 138.698 167.598 138.065 168.483C137.432 169.383 136.53 170.078 135.391 170.583C134.251 171.088 132.938 171.341 131.434 171.341C129.44 171.341 127.794 170.899 126.496 169.999C125.199 169.099 124.376 167.804 124.012 166.098L126.291 165.545C126.576 166.761 127.161 167.677 128.016 168.293C128.87 168.909 129.994 169.225 131.402 169.225C132.969 169.225 134.219 168.877 135.169 168.167C136.119 167.456 136.577 166.588 136.577 165.514C136.577 164.693 136.308 163.998 135.755 163.445C135.201 162.877 134.378 162.466 133.254 162.198L129.915 161.408C128.142 160.982 126.829 160.318 125.974 159.387C125.12 158.471 124.692 157.318 124.692 155.96C124.692 154.839 124.993 153.844 125.61 152.991C126.227 152.138 127.066 151.475 128.142 150.985C129.218 150.496 130.437 150.259 131.814 150.259C133.681 150.259 135.185 150.685 136.308 151.522C137.432 152.375 138.239 153.528 138.73 155.012H138.714Z" fill="black"/>
</g>
<defs>
<clipPath id="clip0_106_325">
<rect width="144" height="179" fill="white"/>
</clipPath>
</defs>
</svg>
