<svg width="432" height="613" viewBox="0 0 432 613" fill="none" xmlns="http://www.w3.org/2000/svg">
<g clip-path="url(#clip0_106_213)">
<path d="M1.47123 63.7296L77.6722 599.384C78.8104 607.176 86.028 612.584 93.8285 611.503L418.287 565.411C426.087 564.302 431.528 557.064 430.418 549.271L354.189 13.6446C353.078 5.85178 345.861 0.416206 338.06 1.52551L13.5746 47.5061C5.77402 48.5876 0.360833 55.7981 1.44347 63.5632V63.7296H1.47123ZM213.724 54.4669L147.794 63.8128C141.881 64.6448 136.412 60.5403 135.579 54.6333C134.747 48.7263 138.855 43.263 144.768 42.431L210.67 33.0574C216.555 32.0868 222.135 36.0525 223.134 41.9595C224.106 47.8388 220.136 53.4131 214.223 54.4115C214.057 54.4115 213.89 54.4669 213.724 54.4947V54.4669Z" fill="white"/>
<path d="M91.7466 613C83.9461 613 77.367 607.26 76.2566 599.55L0.138879 63.9237C-1.0548 55.382 4.88583 47.4783 13.4359 46.2303L337.922 0.16656C346.472 -1.02594 354.411 4.90882 355.633 13.4504L431.834 549.049C433.083 557.563 427.17 565.467 418.648 566.715H418.537L94.023 612.834C93.2734 612.945 92.4962 613 91.7466 613ZM340.004 2.88435C339.393 2.85662 338.81 2.85662 338.199 2.88435L13.769 48.9758C6.71798 49.9742 1.83223 56.4913 2.83159 63.5354L79.0604 599.162C80.0875 606.206 86.5833 611.087 93.6343 610.088L418.092 563.997C425.116 563.026 430.001 556.564 429.03 549.548V549.465L352.829 13.8387C351.913 7.48795 346.472 2.80115 340.059 2.77342L340.004 2.88435ZM146.184 65.4212C139.438 65.338 134.025 59.8192 134.108 53.0802C134.164 47.09 138.578 42.0427 144.491 41.1553L210.393 31.8094C213.585 31.3379 216.861 32.1699 219.442 34.1112C224.828 38.1324 225.938 45.7589 221.913 51.139V51.1944C219.942 53.7458 217.055 55.4098 213.89 55.8258L147.96 65.1994C147.378 65.2826 146.822 65.3103 146.239 65.3103L146.184 65.4212ZM212.141 34.444C211.697 34.4162 211.225 34.4162 210.781 34.444L144.879 43.7898C139.716 44.5663 136.163 49.3641 136.912 54.5223C137.689 59.6806 142.492 63.2304 147.655 62.4538L213.502 53.0525C215.972 52.7197 218.221 51.3886 219.72 49.3918C221.219 47.3951 221.857 44.8714 221.524 42.4032C220.858 37.7719 216.888 34.333 212.197 34.3053L212.141 34.444Z" fill="#263238"/>
<path d="M343.376 62.9291L25.5273 108.064L94.2759 591.245L412.124 546.109L343.376 62.9291Z" fill="#BDDBF1"/>
<path d="M94.3008 592.617C93.6068 592.617 93.0238 592.09 92.9405 591.424L24.1792 108.268C24.1237 107.907 24.2347 107.519 24.4568 107.214C24.6789 106.937 24.9842 106.743 25.3451 106.687L343.224 61.5385C343.585 61.4831 343.946 61.594 344.251 61.8159C344.557 62.0377 344.751 62.3705 344.779 62.731L413.54 545.887C413.651 546.636 413.124 547.357 412.374 547.468L94.5229 592.617H94.3008ZM27.1217 109.239L95.4945 589.677L410.597 544.917L342.225 64.4782L27.1217 109.239Z" fill="#263238"/>
<path d="M294.769 90.5039L79.9844 121.004L124.719 435.409L339.504 404.909L294.769 90.5039Z" fill="white"/>
<path d="M124.725 436.788C124.42 436.788 124.115 436.704 123.865 436.51C123.587 436.288 123.393 435.956 123.337 435.595L78.5884 121.191C78.4773 120.415 79.0325 119.721 79.7821 119.611L294.561 89.1047C295.338 88.9938 296.032 89.5484 296.143 90.2972L340.892 404.701C340.92 405.061 340.836 405.422 340.614 405.727C340.392 406.032 340.059 406.226 339.698 406.282L124.92 436.788H124.725ZM81.5309 122.162L125.947 433.848L338.005 403.73L293.589 92.0721L81.5309 122.162Z" fill="#263238"/>
<path d="M124.725 435.401C165.699 429.855 295.033 410.442 339.504 404.895C335.84 379.215 331.009 345.825 330.426 329.823C324.625 325.663 314.492 322.086 299.891 314.376C276.989 302.313 239.818 276.965 239.818 276.965L224.717 278.574L224.578 277.686L212.502 279.849L200.26 281.125V282.012L185.298 284.786C185.298 284.786 156.677 319.479 138.106 337.477C125.836 349.319 118.174 354.727 113.927 360.495C114.26 361.466 120.561 405.727 124.725 435.401Z" fill="white"/>
<path d="M124.698 436.455C124.17 436.455 123.726 436.066 123.67 435.54C119.479 405.616 113.26 361.771 113.011 360.662C112.955 360.357 113.011 360.052 113.205 359.83C116.647 355.642 120.478 351.843 124.698 348.432C128.168 345.353 132.498 341.526 137.495 336.673C155.872 318.98 184.381 284.48 184.687 284.12C184.853 283.926 185.075 283.787 185.325 283.759L199.205 281.263C199.205 281.014 199.261 280.764 199.427 280.57C199.594 280.348 199.844 280.21 200.121 280.182L212.363 278.906L224.383 276.743C224.661 276.688 224.939 276.743 225.161 276.909C225.383 277.048 225.522 277.27 225.577 277.52L239.679 276.022C239.929 276.022 240.151 276.05 240.373 276.188C240.762 276.466 277.766 301.647 300.335 313.544C306.692 316.9 312.105 319.423 316.991 321.642C321.904 323.694 326.623 326.19 331.093 329.074C331.37 329.241 331.537 329.546 331.537 329.879C332.064 345.048 336.506 376.109 340.059 401.068L340.587 404.84C340.642 405.117 340.587 405.394 340.392 405.616C340.226 405.838 339.976 405.977 339.698 406.032C311.661 409.443 251.2 418.262 197.845 426.027C166.837 430.548 140.077 434.347 124.92 436.51L124.698 436.455ZM115.12 360.634C115.925 365.709 121.922 408.029 125.586 434.236C140.909 432.128 167.226 428.301 197.484 423.892C250.228 416.21 309.829 407.53 338.338 404.008L337.949 401.234C334.424 376.497 330.038 345.769 329.427 330.322C325.152 327.688 320.683 325.358 316.047 323.389C311.272 321.171 305.831 318.619 299.391 315.236C277.849 303.893 243.232 280.487 239.54 277.991L224.828 279.544C224.328 279.572 223.884 279.294 223.717 278.823L212.613 280.82L201.37 282.012C201.37 282.511 201.01 282.927 200.51 282.983L185.936 285.59C183.16 289.029 156.399 321.115 138.744 338.032C133.72 342.913 129.361 346.768 125.863 349.846C121.977 353.118 118.368 356.724 115.12 360.634Z" fill="#263238"/>
<path d="M330.482 329.823C324.819 326.329 318.878 323.306 312.743 320.727L311.216 320.006L309.19 319.035L306.414 317.676L304.776 316.844C303.221 316.068 301.639 315.264 299.974 314.376C277.072 302.313 239.901 276.965 239.901 276.965L224.8 278.574L224.661 277.686L212.585 279.849L200.343 281.125V282.012L185.381 284.786C185.381 284.786 156.76 319.479 138.189 337.477C136.939 338.698 135.746 339.835 134.552 340.944C124.392 350.401 117.896 355.31 114.01 360.496C114.01 360.884 114.843 366.181 116.008 374.168L331.426 343.662C330.926 338.199 330.482 333.539 330.482 329.823Z" fill="#263238"/>
<path d="M334.174 366.43L119.284 396.936C120.395 404.84 121.588 413.215 122.726 421.23L337.477 390.724C336.339 382.681 335.201 374.362 334.174 366.43Z" fill="#263238"/>
<path d="M219.664 335.259L227.714 386.619L240.595 384.789L228.159 333.318C228.159 333.318 220.691 332.208 219.664 335.259Z" fill="white"/>
<path d="M227.77 387.646C227.271 387.646 226.826 387.285 226.743 386.786L218.693 335.425C218.665 335.259 218.665 335.092 218.693 334.926C219.942 331.154 227.465 332.153 228.325 332.291C228.742 332.347 229.075 332.652 229.158 333.068L241.65 384.54C241.733 384.817 241.678 385.122 241.511 385.372C241.345 385.621 241.095 385.787 240.79 385.815L227.909 387.646H227.77ZM220.802 335.397L228.631 385.316L239.374 383.791L227.382 334.15C224.8 334.011 221.469 334.15 220.747 335.397H220.802Z" fill="#263238"/>
<path d="M228.354 349.264C228.187 348.154 227.16 347.35 226.022 347.516C224.911 347.683 224.134 348.737 224.273 349.846C224.412 350.955 225.467 351.732 226.605 351.593C227.715 351.427 228.492 350.401 228.354 349.291V349.264Z" fill="white"/>
<path d="M226.327 352.564C225.661 352.564 224.995 352.342 224.467 351.926C223.801 351.427 223.385 350.706 223.246 349.902C223.135 349.097 223.357 348.265 223.857 347.6C224.856 346.213 226.771 345.908 228.159 346.906C228.853 347.406 229.297 348.154 229.409 349.014C229.547 349.818 229.325 350.65 228.826 351.316C228.326 351.982 227.604 352.398 226.799 352.508L226.327 352.564ZM226.327 348.432H226.188C225.911 348.432 225.689 348.598 225.522 348.82C225.356 349.042 225.272 349.291 225.328 349.569C225.328 349.846 225.494 350.068 225.716 350.234C225.939 350.401 226.188 350.456 226.466 350.429C226.744 350.429 226.966 350.262 227.132 350.04C227.299 349.818 227.354 349.569 227.327 349.291C227.215 348.848 226.799 348.515 226.327 348.515V348.432Z" fill="#263238"/>
<path d="M233.905 373.696C233.85 372.559 232.851 371.699 231.74 371.782C230.63 371.866 229.741 372.836 229.825 373.946C229.825 374.056 229.825 374.167 229.88 374.278C230.019 375.388 231.046 376.164 232.157 376.025H232.184C233.295 375.859 234.1 374.833 233.933 373.696H233.905Z" fill="white"/>
<path d="M231.879 377.08C230.297 377.08 228.964 375.887 228.826 374.306C228.687 373.502 228.881 372.67 229.409 372.032C230.408 370.646 232.323 370.34 233.711 371.339C234.405 371.838 234.85 372.587 234.961 373.447C235.099 374.251 234.877 375.083 234.378 375.748C233.878 376.386 233.156 376.83 232.351 376.941L231.879 377.08ZM231.879 372.975H231.74C231.185 373.031 230.769 373.557 230.852 374.112C230.908 374.667 231.435 375.083 231.99 375C232.268 374.972 232.518 374.833 232.684 374.611C232.851 374.389 232.934 374.14 232.879 373.863C232.823 373.363 232.379 372.975 231.879 372.975Z" fill="#263238"/>
<path d="M187.629 269.089C187.629 269.089 179.301 272.445 176.997 286.644C174.693 300.843 176.747 336.257 175.72 344.411C174.693 352.564 177.053 353.701 182.466 350.761C187.879 347.822 192.904 336.895 201.481 335.647C209.032 335.037 216.638 335.176 224.161 336.063C224.161 336.063 236.653 326.273 245.231 324.97C253.809 323.667 266.773 337.949 270.215 337.45C273.657 336.95 265.135 306.944 257.279 287.531C249.423 268.118 235.931 260.658 220.913 262.794C205.895 264.929 187.629 269.089 187.629 269.089Z" fill="white"/>
<path d="M178.191 353.285C177.497 353.285 176.83 353.119 176.247 352.73C174.582 351.593 174.11 348.986 174.693 344.272C175.082 341.083 174.998 333.456 174.887 324.637C174.721 311.464 174.526 295.074 175.97 286.45C178.385 271.862 186.879 268.257 187.24 268.118H187.407C187.601 268.118 206.006 264.014 220.913 261.906C237.569 259.549 250.755 268.562 258.389 287.281C264.58 302.479 274.379 333.207 271.769 337.727C271.52 338.198 271.048 338.531 270.52 338.614C268.771 338.864 266.412 337.228 262.026 334.066C257.029 330.433 250.144 325.469 245.37 326.163C237.18 327.327 224.938 336.84 224.8 336.95C224.577 337.117 224.328 337.2 224.05 337.172C216.61 336.285 209.087 336.146 201.62 336.729C196.679 337.45 192.848 341.804 189.461 345.658C187.657 348.016 185.436 350.068 182.965 351.704C181.522 352.619 179.884 353.146 178.191 353.285ZM187.962 270.087C187.185 270.476 180.134 274.136 178.024 286.727C176.608 295.047 176.83 311.437 176.969 324.526C176.969 333.428 177.191 341.166 176.747 344.466C176.164 349.291 176.914 350.567 177.413 350.928C177.913 351.288 179.107 351.316 181.966 349.763C184.215 348.21 186.213 346.352 187.907 344.216C191.515 340.112 195.624 335.425 201.342 334.621C208.838 333.983 216.388 334.122 223.856 335.009C225.965 333.373 237.014 325.192 245.092 323.916C250.644 323.14 257.667 328.159 263.247 332.236C265.301 333.955 267.578 335.37 270.02 336.424C271.381 333.345 264.746 308.275 256.446 287.919C249.228 270.171 236.736 261.601 221.191 263.82C206.95 265.927 189.461 269.727 187.962 270.06V270.087Z" fill="#263238"/>
<path d="M128.917 369.203C123.004 358.831 117.813 360.218 114.537 363.657C116.119 374.584 121.172 410.164 124.697 435.318H125.502C132.109 434.43 140.854 433.182 151.069 431.713L151.541 431.463C145.018 410.192 135.44 380.796 128.917 369.203Z" fill="white"/>
<path d="M124.697 436.399C124.17 436.399 123.726 436.011 123.67 435.484C120.339 411.717 115.176 375.221 113.51 363.823C113.455 363.49 113.566 363.158 113.788 362.936C115.453 360.994 117.952 359.941 120.506 360.162C123.698 360.606 126.835 363.49 129.805 368.732C136.301 380.158 145.767 408.944 152.541 431.075C152.707 431.602 152.43 432.184 151.902 432.378L151.486 432.572H151.236C140.993 434.042 132.248 435.345 125.641 436.177H124.781L124.697 436.399ZM115.648 364.045C117.341 375.859 122.31 410.802 125.586 434.236L150.237 430.742C143.519 408.861 134.302 380.823 128.029 369.73C125.391 365.071 122.782 362.548 120.256 362.187C118.507 362.076 116.814 362.742 115.648 364.045Z" fill="#263238"/>
<path d="M315.159 408.029C323.181 406.393 331.287 405.2 339.421 404.424C336.228 381.933 332.148 353.784 330.815 336.507C313.077 343.828 312.993 381.877 315.159 408.029Z" fill="white"/>
<path d="M315.158 408.944C314.936 408.944 314.714 408.861 314.547 408.722C314.298 408.556 314.159 408.278 314.131 408.001C311.716 379.021 312.576 342.913 330.426 335.425C330.731 335.259 331.065 335.259 331.37 335.425C331.648 335.619 331.842 335.924 331.87 336.257C333.119 352.647 336.922 379.326 339.976 400.735L340.447 404.063C340.503 404.34 340.42 404.646 340.225 404.867C340.059 405.089 339.809 405.228 339.531 405.256C331.425 406.032 323.347 407.225 315.38 408.861L315.158 408.944ZM329.899 337.976C313.964 346.629 314.298 383.957 316.019 406.642C322.931 405.256 330.204 404.174 338.227 403.342L337.921 401.096C334.951 380.296 331.287 354.533 329.899 337.976Z" fill="#263238"/>
<path d="M243.787 196.624C243.787 196.624 244.898 173.495 255.919 189.441C266.939 205.387 247.452 230.042 244.815 226.048C242.177 222.055 243.787 196.624 243.787 196.624Z" fill="white"/>
<path d="M245.564 227.518C244.87 227.518 244.232 227.213 243.843 226.631C241.067 222.471 242.566 199.258 242.76 196.568C242.76 195.237 243.482 184.283 248.312 182.924C250.811 182.231 253.615 184.144 256.862 188.831C263.247 198.066 259.638 209.104 256.862 214.844C253.67 221.583 248.729 227.268 245.758 227.518H245.564ZM249.256 184.865H248.812C246.203 185.614 245.009 193.185 244.842 196.624C244.121 206.303 243.704 222.692 245.564 225.383C246.036 225.383 248.59 223.968 251.727 219.42C257.279 211.516 261.36 199.037 255.058 189.94C252.754 186.668 250.7 184.865 249.256 184.865Z" fill="#263238"/>
<path d="M245.12 209.963H244.926C244.371 209.88 243.982 209.325 244.093 208.771C244.537 206.358 247.008 194.35 250.228 192.409C251.116 191.798 252.227 191.66 253.226 192.02C254.614 192.797 255.641 194.156 256.002 195.709C256.113 196.263 255.78 196.818 255.225 196.957C254.698 197.095 254.142 196.79 254.004 196.263V196.208C253.809 195.598 253.282 194.239 252.532 193.962C252.532 193.962 252.088 193.767 251.422 194.183C249.645 195.265 247.313 203.585 246.258 209.131C246.147 209.658 245.648 209.991 245.12 209.963Z" fill="#263238"/>
<path d="M252.06 209.88C251.727 209.88 251.394 209.713 251.2 209.436C250.894 208.965 251.005 208.327 251.477 207.994C252.616 207.134 253.115 205.637 252.699 204.278C252.643 204.028 252.477 203.806 252.227 203.696C250.478 203.418 248.674 203.696 247.091 204.527C246.564 204.749 245.953 204.527 245.731 204.001C245.481 203.501 245.703 202.891 246.203 202.669H246.259C248.368 201.588 250.783 201.283 253.087 201.81C253.892 202.142 254.475 202.836 254.698 203.696C255.364 205.914 254.531 208.327 252.671 209.713C252.477 209.824 252.282 209.88 252.06 209.88Z" fill="#263238"/>
<path d="M158.37 208.771C158.37 208.771 150.847 186.834 144.712 205.221C138.577 223.608 164.144 241.856 165.699 237.28C167.253 232.704 158.37 208.771 158.37 208.771Z" fill="white"/>
<path d="M164.505 239.027C163.867 239.027 163.256 238.888 162.645 238.666C155.872 236.42 138.411 220.834 143.741 204.888C145.545 199.48 147.711 196.846 150.292 196.846C155.234 196.846 158.926 207.162 159.342 208.41C160.286 210.962 168.281 232.787 166.698 237.585C166.393 238.5 165.477 239.11 164.505 239.027ZM150.32 198.926C148.765 198.926 147.155 201.283 145.712 205.554C142.214 216.064 149.682 226.88 157.149 232.953C161.424 236.448 164.311 237.197 164.783 236.891C165.782 233.841 160.785 218.227 157.399 209.159C155.955 204.86 152.818 198.926 150.32 198.926Z" fill="#263238"/>
<path d="M160.563 221.971C160.175 221.971 159.814 221.75 159.62 221.389C157.038 216.342 152.485 209.02 150.459 208.466C149.709 208.272 149.432 208.466 149.348 208.466C148.71 208.937 148.571 210.379 148.599 211.017C148.599 211.599 148.182 212.071 147.6 212.099C147.044 212.126 146.545 211.683 146.517 211.128C146.406 209.519 146.961 207.966 148.044 206.829C148.876 206.164 150.015 205.997 151.014 206.358C154.651 207.329 160.369 218.172 161.479 220.224C161.729 220.723 161.535 221.334 161.035 221.611C160.924 221.777 160.758 221.888 160.563 221.971Z" fill="#263238"/>
<path d="M153.846 223.829C153.846 223.829 153.624 223.829 153.513 223.829C151.319 223.025 149.876 220.945 149.876 218.616C149.876 217.756 150.237 216.924 150.903 216.369C152.985 215.232 155.372 214.844 157.704 215.26C158.259 215.343 158.676 215.842 158.593 216.397C158.537 216.952 158.037 217.368 157.51 217.312H157.427C155.678 216.979 153.873 217.201 152.263 217.95C152.069 218.116 151.958 218.366 151.958 218.616C151.958 220.058 152.819 221.361 154.179 221.86C154.734 222.054 155.039 222.637 154.845 223.192C154.678 223.58 154.29 223.829 153.846 223.829Z" fill="#263238"/>
<path d="M181.217 254.668C181.217 254.668 193.237 296.655 195.569 304.42C198.345 313.489 214.556 335.259 222.857 331.903C231.157 328.548 232.684 303.505 233.794 296.073C234.905 288.641 232.711 247.375 232.711 247.375L181.217 254.668Z" fill="white"/>
<path d="M220.969 333.29C219.498 333.262 218.082 332.874 216.778 332.181C207.978 327.993 196.901 312.324 194.57 304.698C192.238 297.071 180.329 255.389 180.19 254.973C180.051 254.696 180.051 254.391 180.19 254.113C180.357 253.864 180.606 253.697 180.912 253.642L232.434 246.348C232.712 246.293 233.017 246.348 233.239 246.57C233.461 246.764 233.6 247.014 233.6 247.319C233.6 249.011 235.821 288.751 234.683 296.211C234.516 297.348 234.35 298.846 234.128 300.649C232.462 314.737 230.102 330.017 223.024 332.846C222.385 333.123 221.663 333.262 220.969 333.29ZM182.522 255.5C184.493 262.295 194.486 297.099 196.568 304.06C198.65 311.021 209.477 326.246 217.666 330.267C219.109 331.127 220.831 331.349 222.441 330.877C228.909 328.243 231.13 309.412 232.212 300.371C232.434 298.569 232.601 297.016 232.767 295.879C233.767 289.306 232.073 255.195 231.74 248.539L182.522 255.5Z" fill="#263238"/>
<path d="M152.152 158.214C152.152 158.214 154.567 198.343 162.978 226.714C171.39 255.084 196.54 277.769 209.587 277.02C222.634 276.272 247.341 242.105 245.842 223.691C244.343 205.276 247.563 158.88 238.513 141.547C229.463 124.214 216.916 120.553 190.988 123.133C165.06 125.712 147.405 140.271 152.152 158.214Z" fill="white"/>
<path d="M208.949 278.074C194.736 278.074 170.085 254.529 162.007 227.019C153.929 199.508 151.264 160.655 151.125 158.381C149.348 151.919 150.597 144.986 154.511 139.522C161.063 130.093 174.304 123.743 190.877 122.106C218.359 119.333 230.601 124.159 239.457 141.075C246.036 153.694 246.203 180.761 246.341 202.531C246.341 211.072 246.341 218.421 246.869 223.607C247.868 235.588 238.152 253.642 228.048 265.206C224.05 269.81 216.333 277.603 209.643 277.991L208.949 278.074ZM204.063 123.438C200.177 123.438 195.874 123.687 191.071 124.159C175.359 125.739 162.312 131.924 156.233 140.798C152.652 145.762 151.513 152.113 153.151 158.02C153.151 158.075 153.151 158.159 153.151 158.214C153.151 158.63 155.677 198.593 163.95 226.492C172.278 254.834 197.623 276.798 209.504 276.05C213.807 275.8 219.997 271.391 226.437 263.986C236.264 252.699 245.703 235.283 244.759 223.885C244.315 218.616 244.287 211.211 244.232 202.642C244.093 181.093 243.926 154.304 237.569 142.129C230.546 128.734 221.802 123.438 204.063 123.438Z" fill="#263238"/>
<path d="M155.955 205.803C155.955 205.803 160.369 204.25 159.342 196.957C158.315 189.663 156.76 185.254 159.342 183.506C161.924 181.759 165.838 180.262 165.671 172.413C165.505 164.565 155.511 159.934 157.621 151.753C160.48 142.878 169.141 137.193 178.441 138.108C187.852 139.107 190.378 153.583 205.396 161.209C220.414 168.836 238.097 165.841 238.097 165.841C236.431 168.448 236.737 171.859 238.819 174.161C240.734 176.379 241.928 179.125 242.261 182.037C242.261 182.037 243.538 197.622 246.286 197.234C249.034 196.846 247.674 161.32 246.897 155.857C246.12 150.394 247.119 128.125 230.241 120.637C213.363 113.149 189.073 115.34 174.444 120.193C159.814 125.046 152.236 133.116 148.932 146.567C145.629 160.017 155.955 205.803 155.955 205.803Z" fill="#263238"/>
<path d="M155.955 206.829C155.789 206.857 155.622 206.857 155.455 206.829C155.206 206.663 155.011 206.413 154.928 206.136C154.512 204.25 144.685 159.878 147.905 146.345C151.125 132.811 159.259 124.159 174.082 119.25C189.739 114.036 214.195 112.539 230.629 119.694C245.758 126.322 247.008 144.154 247.618 152.751C247.618 153.999 247.757 155.025 247.868 155.746C248.285 158.519 248.784 168.919 248.895 178.459C249.062 197.872 247.507 198.121 246.369 198.288C245.87 198.371 245.342 198.204 244.953 197.872C242.483 195.903 241.428 185.337 241.178 182.147C240.817 179.457 239.679 176.906 237.93 174.826C236.181 172.691 235.571 169.89 236.292 167.227C225.549 168.447 214.695 166.728 204.868 162.235C198.483 158.713 192.987 153.749 188.823 147.759C185.297 143.266 182.494 139.689 178.274 139.273C169.502 138.413 161.313 143.766 158.565 152.113C157.537 156.107 159.814 159.268 162.201 162.596C164.644 165.286 166.226 168.697 166.698 172.302C166.893 179.846 163.395 182.064 160.841 183.7L159.925 184.283C158.565 185.226 158.925 187.694 159.73 192.353C159.953 193.684 160.202 195.126 160.424 196.735C161.563 204.749 156.566 206.607 156.372 206.691C156.233 206.774 156.094 206.829 155.955 206.829ZM203.369 116.837C193.653 116.782 184.02 118.252 174.749 121.164C160.48 125.906 153.068 133.56 149.931 146.761C147.155 158.492 154.956 196.236 156.649 204.167C158.342 202.309 158.981 199.702 158.37 197.262C158.148 195.681 157.898 194.239 157.676 192.908C156.788 187.888 156.233 184.588 158.759 182.785L159.703 182.175C162.09 180.65 164.783 178.958 164.616 172.58C164.2 169.335 162.784 166.284 160.563 163.844C158.009 160.266 155.344 156.578 156.594 151.614C158.842 142.823 168.891 136.222 178.524 137.221C183.632 137.748 186.852 141.824 190.516 146.511C194.486 152.252 199.733 157.022 205.867 160.377C220.414 167.754 237.764 164.953 237.93 164.925C238.347 164.842 238.763 165.036 238.985 165.397C239.235 165.757 239.235 166.201 238.985 166.562C237.653 168.808 237.93 171.664 239.707 173.578C241.761 175.963 243.01 178.93 243.343 182.064C243.538 186.806 244.482 191.493 246.119 195.93C247.674 191.188 246.786 161.819 245.981 156.023C245.981 155.275 245.786 154.193 245.703 152.89C245.12 144.57 243.954 127.708 229.963 121.607C221.524 118.252 212.474 116.615 203.369 116.837Z" fill="#263238"/>
<path d="M179.662 222.443C168.42 222.443 159.259 213.374 159.259 202.115C159.259 190.855 168.336 181.731 179.607 181.731C190.85 181.731 200.01 190.8 200.01 202.059C200.01 212.237 192.515 220.862 182.438 222.249C181.522 222.387 180.578 222.443 179.662 222.443ZM179.662 183.617C178.774 183.617 177.913 183.673 177.025 183.784C166.976 185.198 159.981 194.488 161.396 204.528C162.812 214.567 172.112 221.555 182.161 220.141C192.21 218.727 199.205 209.436 197.79 199.397C197.096 194.572 194.542 190.218 190.628 187.278C187.463 184.921 183.66 183.673 179.718 183.7L179.662 183.617Z" fill="#263238"/>
<path d="M223.828 216.175C212.558 216.175 203.425 206.996 203.425 195.736C203.425 185.559 210.948 176.961 221.052 175.547C232.212 173.939 242.566 181.704 244.176 192.852C245.814 204.001 238.097 214.345 226.965 215.953C225.966 216.092 224.967 216.175 223.939 216.175H223.828ZM223.828 177.35C222.968 177.35 222.107 177.405 221.247 177.516C211.114 178.875 204.036 188.193 205.396 198.288C206.756 208.382 216.083 215.482 226.188 214.123C236.293 212.764 243.399 203.446 242.039 193.351C240.817 184.227 233.045 177.405 223.828 177.35Z" fill="#263238"/>
<path d="M184.27 202.476C184.715 205.609 183.771 208.355 182.133 208.577C180.495 208.799 178.802 206.441 178.358 203.308C177.913 200.174 178.885 197.428 180.523 197.206C182.161 196.984 183.826 199.342 184.27 202.476Z" fill="#263238"/>
<path d="M221.607 197.262C222.052 200.395 221.108 203.113 219.47 203.363C217.832 203.612 216.139 201.227 215.695 198.094C215.25 194.96 216.194 192.214 217.832 191.992C219.47 191.771 221.163 194.017 221.607 197.262Z" fill="#263238"/>
<path d="M202.925 186.585C202.925 196.263 203.508 205.942 204.73 215.565C206.395 224.162 208.089 229.431 202.62 230.263C197.151 231.095 197.234 221.75 197.234 221.75" fill="white"/>
<path d="M202.009 231.345C200.899 231.345 199.844 230.957 199.011 230.208C196.235 227.768 196.235 221.888 196.235 221.722C196.235 221.167 196.707 220.723 197.262 220.696C197.845 220.696 198.317 221.167 198.317 221.75C198.179 224.218 198.928 226.658 200.399 228.655C200.982 229.154 201.76 229.376 202.509 229.237C203.397 229.182 204.23 228.766 204.785 228.1C205.924 226.492 205.146 222.831 204.202 218.172L203.731 215.759C202.509 206.081 201.898 196.347 201.898 186.612C201.898 186.03 202.37 185.559 202.953 185.559C203.508 185.559 203.953 185.975 203.98 186.529C203.98 186.529 203.98 186.557 203.98 186.585C203.98 196.208 204.591 205.831 205.785 215.371L206.257 217.756C207.339 223.108 208.144 226.963 206.479 229.321C205.59 230.458 204.258 231.179 202.814 231.29L202.009 231.345Z" fill="#263238"/>
<path d="M186.824 236.67C186.824 236.67 202.675 246.958 222.329 231.622L186.824 236.67Z" fill="white"/>
<path d="M200.204 241.051C195.346 241.107 190.572 239.914 186.324 237.557C185.852 237.252 185.686 236.614 185.991 236.143C186.269 235.644 186.907 235.505 187.352 235.782H187.407C188.046 236.198 202.925 245.461 221.718 230.818C222.162 230.458 222.829 230.541 223.162 231.012C223.495 231.484 223.439 232.121 222.968 232.454C216.555 237.834 208.505 240.857 200.149 241.051H200.204Z" fill="#263238"/>
<path d="M199.344 198.343C198.817 198.343 198.372 197.983 198.317 197.456C198.234 196.901 198.622 196.374 199.177 196.291L204.729 195.514C205.257 195.404 205.784 195.764 205.895 196.291C205.895 196.319 205.895 196.374 205.895 196.402C205.951 196.957 205.562 197.483 205.007 197.567L199.455 198.343H199.288H199.344Z" fill="#263238"/>
<path d="M155.234 205.082C154.651 205.027 154.234 204.528 154.262 203.945C154.29 203.474 154.623 203.113 155.095 203.002L159.203 202.42C159.786 202.42 160.286 202.864 160.286 203.446C160.286 203.945 159.953 204.389 159.481 204.5L155.4 205.082H155.234Z" fill="#263238"/>
<path d="M243.094 192.603C242.594 192.603 242.15 192.214 242.067 191.715C241.984 191.133 242.372 190.606 242.955 190.523L247.064 189.94C247.647 189.94 248.146 190.384 248.146 190.966C248.146 191.465 247.813 191.909 247.341 192.02L243.261 192.603H243.094Z" fill="#263238"/>
<path d="M166.365 187.139C165.893 187.139 165.449 187.028 165.033 186.806C163.7 186.058 163.201 184.366 163.95 183.035C166.726 178.043 175.276 170.306 188.212 176.629C189.6 177.294 190.155 178.958 189.489 180.345C188.823 181.731 187.157 182.286 185.769 181.62C174.304 176.074 169.113 185.309 168.808 185.697C168.308 186.585 167.392 187.139 166.365 187.139Z" fill="#263238"/>
<path d="M210.088 180.927C208.561 180.927 207.312 179.707 207.312 178.154C207.312 177.683 207.423 177.239 207.645 176.823C210.421 171.831 218.998 164.094 231.907 170.417C233.267 171.11 233.794 172.802 233.101 174.161C232.434 175.464 230.852 176.019 229.492 175.409C218.027 169.862 212.836 179.097 212.503 179.485C212.031 180.373 211.087 180.927 210.088 180.927Z" fill="#263238"/>
<path d="M178.191 212.958C177.608 212.875 177.219 212.321 177.33 211.738C177.414 211.294 177.747 210.934 178.191 210.878L187.296 209.603C187.851 209.52 188.351 209.88 188.462 210.407V210.49C188.545 211.045 188.157 211.572 187.602 211.655L178.496 212.958H178.219H178.191Z" fill="#263238"/>
<path d="M215.529 207.661C215.001 207.661 214.585 207.273 214.501 206.774C214.418 206.191 214.807 205.665 215.39 205.581L224.495 204.306C225.05 204.222 225.578 204.611 225.661 205.165C225.744 205.748 225.356 206.275 224.773 206.358L215.667 207.634H215.529V207.661Z" fill="#263238"/>
<path d="M286.765 469.59L191.112 483.105L191.89 488.597L287.542 475.082L286.765 469.59Z" fill="white"/>
<path d="M367.5 518.844L127.352 552.774L128.129 558.266L368.278 524.335L367.5 518.844Z" fill="white"/>
<path d="M302.537 482.28L179.535 499.659L180.313 505.151L303.314 487.772L302.537 482.28Z" fill="white"/>
</g>
<defs>
<clipPath id="clip0_106_213">
<rect width="432" height="613" fill="white"/>
</clipPath>
</defs>
</svg>
