<svg width="442" height="697" viewBox="0 0 442 697" fill="none" xmlns="http://www.w3.org/2000/svg">
<g clip-path="url(#clip0_115_743)">
<path d="M1.47123 63.7296L77.6722 599.384C78.8104 607.176 86.028 612.584 93.8285 611.503L418.287 565.411C426.087 564.302 431.528 557.064 430.418 549.271L354.189 13.6446C353.078 5.85178 345.861 0.416206 338.06 1.52551L13.5746 47.5061C5.77402 48.5876 0.360833 55.7981 1.44347 63.5632V63.7296H1.47123ZM213.724 54.4669L147.794 63.8128C141.881 64.6448 136.412 60.5403 135.579 54.6333C134.747 48.7263 138.855 43.263 144.768 42.431L210.67 33.0574C216.555 32.0868 222.135 36.0525 223.134 41.9595C224.106 47.8388 220.136 53.4131 214.223 54.4115C214.057 54.4115 213.89 54.4669 213.724 54.4947V54.4669Z" fill="white"/>
<path d="M91.7466 613C83.9461 613 77.367 607.26 76.2566 599.55L0.138879 63.9237C-1.0548 55.382 4.88583 47.4783 13.4359 46.2303L337.922 0.16656C346.472 -1.02594 354.411 4.90882 355.633 13.4504L431.834 549.049C433.083 557.563 427.17 565.467 418.648 566.715H418.537L94.023 612.834C93.2734 612.945 92.4962 613 91.7466 613ZM340.004 2.88435C339.393 2.85662 338.81 2.85662 338.199 2.88435L13.769 48.9758C6.71798 49.9742 1.83223 56.4913 2.83159 63.5354L79.0604 599.162C80.0875 606.206 86.5833 611.087 93.6343 610.088L418.092 563.997C425.116 563.026 430.001 556.564 429.03 549.548V549.465L352.829 13.8387C351.913 7.48795 346.472 2.80115 340.059 2.77342L340.004 2.88435ZM146.184 65.4212C139.438 65.338 134.025 59.8192 134.108 53.0802C134.164 47.09 138.578 42.0427 144.491 41.1553L210.393 31.8094C213.585 31.3379 216.861 32.1699 219.442 34.1112C224.828 38.1324 225.938 45.7589 221.913 51.139V51.1944C219.942 53.7458 217.055 55.4098 213.89 55.8258L147.96 65.1994C147.378 65.2826 146.822 65.3103 146.239 65.3103L146.184 65.4212ZM212.141 34.444C211.697 34.4162 211.225 34.4162 210.781 34.444L144.879 43.7898C139.716 44.5663 136.163 49.3641 136.912 54.5223C137.689 59.6806 142.492 63.2304 147.655 62.4538L213.502 53.0525C215.972 52.7197 218.221 51.3886 219.72 49.3918C221.219 47.3951 221.857 44.8714 221.524 42.4032C220.858 37.7719 216.888 34.333 212.197 34.3053L212.141 34.444Z" fill="#263238"/>
<path d="M343.376 62.9291L25.5278 108.064L94.2764 591.245L412.125 546.109L343.376 62.9291Z" fill="#BDDBF1"/>
<path d="M94.3008 592.617C93.6068 592.617 93.0238 592.09 92.9405 591.424L24.1792 108.268C24.1237 107.907 24.2347 107.519 24.4568 107.214C24.6789 106.937 24.9842 106.743 25.3451 106.687L343.224 61.5385C343.585 61.4831 343.946 61.594 344.251 61.8159C344.557 62.0377 344.751 62.3705 344.779 62.731L413.54 545.887C413.651 546.636 413.124 547.357 412.374 547.468L94.5229 592.617H94.3008ZM27.1217 109.239L95.4945 589.677L410.597 544.917L342.225 64.4782L27.1217 109.239Z" fill="#263238"/>
<path d="M294.769 90.5039L79.9839 121.004L124.719 435.409L339.503 404.909L294.769 90.5039Z" fill="white"/>
<path d="M315.159 408.029C323.181 406.393 331.287 405.2 339.421 404.424C336.228 381.933 332.148 353.784 330.815 336.507C313.077 343.828 312.993 381.877 315.159 408.029Z" fill="white"/>
<path d="M286.765 469.59L191.113 483.105L191.89 488.597L287.543 475.082L286.765 469.59Z" fill="white"/>
<path d="M367.5 518.844L127.352 552.774L128.129 558.266L368.278 524.335L367.5 518.844Z" fill="white"/>
<path d="M302.537 482.28L179.536 499.659L180.313 505.151L303.315 487.772L302.537 482.28Z" fill="white"/>
<path d="M125.064 435.799C124.597 435.798 124.205 435.453 124.15 435.019L78.5464 119.84C78.5095 119.605 78.5848 119.352 78.7348 119.153C78.8847 118.973 79.0905 118.846 79.3336 118.811L293.406 89.8365C293.649 89.8009 293.892 89.8738 294.097 90.0189C294.302 90.164 294.432 90.3813 294.451 90.6165L340.054 405.796C340.128 406.284 339.772 406.754 339.267 406.825L125.213 435.799L125.064 435.799ZM80.526 120.477L125.872 433.884L338.074 405.158L292.729 91.7521L80.526 120.477Z" fill="#263238"/>
</g>
<ellipse cx="256" cy="691" rx="186" ry="6" fill="#F5F5F5"/>
<defs>
<clipPath id="clip0_115_743">
<rect width="432" height="613" fill="white"/>
</clipPath>
</defs>
</svg>
