<svg width="673" height="697" viewBox="0 0 673 697" fill="none" xmlns="http://www.w3.org/2000/svg">
<g clip-path="url(#clip0_147_156)">
<path d="M351.258 82.9869C340.522 79.9977 329.766 77.0459 318.917 74.4677C284.613 66.3036 249.055 64.398 213.796 66.2288C139.239 70.1147 106.711 109.011 132.468 145.292C158.224 181.573 190.752 219.181 155.512 254.192C120.272 289.202 -12.5697 320.29 0.972607 382.502C14.5149 444.714 133.777 453.794 124.425 493.979C115.072 534.165 54.0195 545.841 83.7602 600.282C113.501 654.722 223.373 606.764 258.613 635.274C293.853 663.783 312.857 687.117 371.123 696.197C429.388 705.276 471.437 633.985 533.855 606.764C596.273 579.544 659.925 570.465 672.121 506.945C684.316 443.425 567.748 401.95 573.172 337.141C575.884 304.746 598.068 279.469 615.37 253.575C644.587 209.802 668.679 130.944 604.147 105.144C576.09 93.9347 543.88 96.9612 514.364 97.6712C483.651 98.3251 451.797 101.763 421.177 98.3998C397.235 95.7095 374.246 89.3389 351.258 82.9869Z" fill="#F5F5F5"/>
<path opacity="0.7" d="M351.258 82.9869C340.522 79.9977 329.766 77.0459 318.917 74.4677C284.613 66.3036 249.055 64.398 213.796 66.2288C139.239 70.1147 106.711 109.011 132.468 145.292C158.224 181.573 190.752 219.181 155.512 254.192C120.272 289.202 -12.5697 320.29 0.972607 382.502C14.5149 444.714 133.777 453.794 124.425 493.979C115.072 534.165 54.0195 545.841 83.7602 600.282C113.501 654.722 223.373 606.764 258.613 635.274C293.853 663.783 312.857 687.117 371.123 696.197C429.388 705.276 471.437 633.985 533.855 606.764C596.273 579.544 659.925 570.465 672.121 506.945C684.316 443.425 567.748 401.95 573.172 337.141C575.885 304.746 598.068 279.469 615.37 253.575C644.587 209.802 668.679 130.944 604.147 105.144C576.09 93.9347 543.88 96.9612 514.364 97.6712C483.651 98.3251 451.797 101.763 421.177 98.3998C397.235 95.7095 374.246 89.3389 351.258 82.9869Z" fill="#F5F5F5"/>
<path d="M617.241 472.439C599.752 472.495 585.592 486.637 585.536 504.105C585.536 521.592 617.241 554.547 617.241 554.547C617.241 554.547 648.946 521.517 648.946 504.105C648.889 486.637 634.73 472.495 617.241 472.439ZM617.241 515.408C609.852 515.408 603.867 509.448 603.848 502.069C603.829 494.689 609.815 488.711 617.203 488.692C624.592 488.673 630.577 494.652 630.596 502.031C630.596 509.411 624.629 515.389 617.241 515.408Z" fill="#263238"/>
<path d="M617.241 555.556C616.979 555.556 616.736 555.463 616.568 555.276C615.258 553.912 584.601 521.76 584.601 504.105C584.601 486.095 599.228 471.523 617.26 471.523C635.272 471.523 649.862 486.114 649.881 504.105C649.881 521.76 619.224 553.912 617.914 555.276C617.746 555.463 617.503 555.556 617.241 555.556ZM617.241 473.354C600.257 473.373 586.49 487.123 586.472 504.086C586.472 519.593 612.658 548.345 617.241 553.24C621.805 548.345 648.01 519.611 648.01 504.086C647.992 487.123 634.225 473.391 617.241 473.373V473.354ZM617.241 516.305C609.348 516.305 602.932 509.915 602.913 502.031C602.894 494.147 609.31 487.739 617.204 487.721C625.097 487.702 631.513 494.11 631.532 501.994C631.55 509.878 625.172 516.305 617.26 516.323H617.241V516.305ZM617.241 489.589C610.376 489.589 604.802 495.138 604.784 501.994C604.784 508.85 610.339 514.418 617.204 514.436C624.068 514.436 629.642 508.888 629.661 502.031C629.624 495.194 624.087 489.682 617.241 489.664V489.589Z" fill="#263238"/>
<path d="M224.776 47.7894C210.167 40.0923 190.789 38.6164 172.982 43.8661C155.175 49.1158 139.314 61.0538 131.345 75.626C130.055 77.9426 130.878 80.8571 133.197 82.1648C134.338 82.8 135.704 82.9495 136.957 82.5572C138.173 82.2022 139.201 81.3802 139.8 80.2593C146.646 67.8542 160.076 57.691 175.732 53.0952C191.388 48.4993 207.867 49.7323 220.324 56.2898C222.681 57.5229 225.58 56.6261 226.815 54.2721C228.049 51.9182 227.151 49.0224 224.813 47.7894H224.776Z" fill="#263238"/>
<path d="M216.097 64.8463C191.463 54.7579 163.106 63.1649 147.974 85.0606C146.515 87.2651 147.114 90.2543 149.339 91.7115C150.537 92.4962 151.996 92.7204 153.361 92.3094C154.446 92.0291 155.381 91.3566 156.017 90.4411C168.587 72.4687 191.912 65.5376 212.263 73.7578C214.694 74.8227 217.537 73.7018 218.585 71.2731C219.651 68.8444 218.529 66.0046 216.097 64.9398V64.8463Z" fill="#263238"/>
<path d="M207.287 81.7725C191.612 75.215 173.487 80.801 164.266 95.0556C162.788 97.2602 163.387 100.249 165.594 101.725C167.801 103.182 170.756 102.622 172.271 100.474C178.93 89.9927 192.211 85.8639 203.658 90.684C206.127 91.6741 208.933 90.4972 209.924 88.0311C210.916 85.565 209.737 82.7627 207.268 81.7725H207.287Z" fill="#263238"/>
<path d="M188.582 96.7371C182.447 98.5119 178.931 104.92 180.707 111.048C182.484 117.176 188.9 120.688 195.035 118.913C201.152 117.138 204.687 110.749 202.91 104.621C201.133 98.4932 194.736 94.9622 188.601 96.7371H188.582Z" fill="#263238"/>
<path d="M616.455 152.242H532.863C526.017 152.242 520.481 157.772 520.481 164.61V209.242C520.481 216.08 526.017 221.61 532.863 221.61H535.463C532.863 227.364 527.869 236.126 519.845 241.338C519.845 241.338 536.791 240.161 554.449 221.61H616.418C623.264 221.61 628.8 216.08 628.8 209.242V164.61C628.8 157.791 623.282 152.261 616.455 152.242Z" fill="#263238"/>
<path d="M519.882 242.272C519.471 242.272 519.115 242.029 518.984 241.637C518.853 241.226 519.003 240.796 519.358 240.554C526.504 235.92 531.217 228.447 534.023 222.544H532.863C525.531 222.506 519.602 216.565 519.583 209.242V164.61C519.583 157.286 525.531 151.345 532.863 151.327H616.418C623.769 151.327 629.736 157.286 629.736 164.629V209.242C629.736 216.584 623.769 222.544 616.418 222.544H554.898C537.278 240.871 520.649 242.216 519.938 242.272H519.882ZM532.863 153.195C526.541 153.195 521.416 158.314 521.416 164.629V209.242C521.416 215.557 526.541 220.676 532.863 220.676H535.463C535.968 220.676 536.399 221.068 536.399 221.572C536.399 221.722 536.361 221.871 536.305 222.002C533.424 228.746 529.085 234.799 523.623 239.694C529.553 238.218 541.542 233.828 553.775 221.012C553.944 220.825 554.187 220.713 554.449 220.713H616.418C622.74 220.713 627.865 215.594 627.865 209.279V164.61C627.865 158.295 622.74 153.176 616.418 153.176H532.863V153.195Z" fill="#263238"/>
<path d="M560.304 185.329C560.304 181.816 557.442 178.958 553.925 178.958C550.409 178.958 547.547 181.816 547.547 185.329C547.547 188.841 550.409 191.699 553.925 191.699C557.442 191.699 560.285 188.86 560.285 185.347H560.304V185.329Z" fill="white"/>
<path d="M575.604 191.699C579.127 191.699 581.982 188.847 581.982 185.329C581.982 181.81 579.127 178.958 575.604 178.958C572.081 178.958 569.226 181.81 569.226 185.329C569.226 188.847 572.081 191.699 575.604 191.699Z" fill="white"/>
<path d="M603.642 185.329C603.642 181.816 600.781 178.958 597.264 178.958C593.748 178.958 590.886 181.816 590.886 185.329C590.886 188.841 593.748 191.699 597.264 191.699C600.781 191.699 603.642 188.841 603.642 185.329Z" fill="white"/>
<path d="M116.98 645.157C111.181 645.269 105.476 643.737 100.501 640.748C76.8581 626.586 62.923 605.55 57.031 578.946C55.572 573.491 55.4036 567.793 56.5446 562.263C58.4525 552.959 65.5791 545.598 74.8193 543.394C78.2984 542.18 82.0954 543.936 83.4235 547.373C85.6307 553.501 87.5011 559.741 89.0349 566.056C89.5774 568.914 88.0062 571.754 85.294 572.819C82.5257 574.22 79.6825 575.471 76.7833 576.555C75.2308 576.891 74.2581 578.405 74.5948 579.955C74.6509 580.273 74.7631 580.553 74.9128 580.815C80.2624 595.817 89.0536 609.38 100.557 620.421C102.278 622.084 103.512 621.804 105.084 620.085C107.066 617.824 109.274 615.751 111.649 613.92C114.137 611.79 117.784 611.753 120.309 613.826C124.817 617.152 129.119 620.739 133.216 624.55C137.948 629.183 137.63 633.63 132.879 638.244C128.67 642.504 122.966 644.988 116.98 645.157Z" fill="#263238"/>
<path d="M116.98 646.091C111.051 646.165 105.233 644.596 100.146 641.551C77.1388 627.782 62.362 606.783 56.2268 579.152C54.7117 573.566 54.5621 567.7 55.7405 562.039C57.7045 552.418 65.0555 544.814 74.5949 542.497C78.5417 541.133 82.8625 543.151 84.3402 547.056C86.566 553.221 88.4365 559.517 89.9516 565.906C90.625 569.194 88.8293 572.482 85.7056 573.697C82.9747 575.079 80.0942 576.368 77.1388 577.527C75.4928 578.162 75.1561 578.909 75.7733 580.59C81.1042 595.443 89.802 608.875 101.193 619.823C101.586 620.272 102.11 620.571 102.69 620.664C103.139 620.664 103.681 620.29 104.373 619.524C106.393 617.226 108.638 615.115 111.069 613.247C113.875 610.856 118.009 610.8 120.871 613.154L122.554 614.48C126.482 617.413 130.223 620.571 133.777 623.952C135.984 625.764 137.331 628.417 137.518 631.257C137.294 634.265 135.853 637.03 133.515 638.935C129.12 643.307 123.209 645.848 116.999 646.016V646.091H116.98ZM77.1014 544.01C76.4093 544.01 75.7172 544.104 75.0438 544.291C66.1403 546.42 59.2757 553.52 57.4239 562.487C56.3203 567.868 56.4886 573.435 57.9102 578.741C63.9332 605.849 78.4855 626.456 100.931 639.944C105.738 642.859 111.275 644.335 116.905 644.222C122.648 644.073 128.109 641.719 132.15 637.665C134.114 636.077 135.348 633.779 135.573 631.276C135.404 628.94 134.282 626.773 132.468 625.297C128.951 621.972 125.229 618.852 121.338 615.956L119.655 614.63C117.466 612.855 114.305 612.892 112.173 614.742C109.835 616.535 107.684 618.572 105.738 620.795C105.028 621.766 103.943 622.401 102.746 622.532C101.623 622.532 100.576 622.028 99.8652 621.168C88.2682 610.015 79.4208 596.34 73.9964 581.207C73.005 579.395 73.6597 577.134 75.4741 576.125C75.7733 575.957 76.0913 575.845 76.428 575.77C79.3273 574.631 82.1704 573.379 84.8452 572.034C87.1833 571.193 88.5674 568.783 88.1185 566.336C86.5847 560.021 84.7143 553.781 82.5071 547.654C81.6654 545.412 79.4956 543.954 77.1014 544.01Z" fill="#263238"/>
<path d="M150.163 590.492C149.77 593.463 149.545 596.47 148.947 599.422C148.704 601.832 146.553 603.57 144.14 603.327C143.859 603.289 143.597 603.233 143.335 603.159C140.885 602.58 139.594 600.282 140.156 597.255C143.766 577.975 131.757 559.218 112.734 554.379C111.892 554.211 111.069 553.968 110.265 553.651C108.245 552.866 107.104 550.717 107.628 548.606C107.871 546.383 109.854 544.776 112.08 545.019H112.528C116.644 545.916 120.646 547.242 124.481 548.999C140.174 556.92 150.088 572.931 150.163 590.492Z" fill="#263238"/>
<path d="M144.626 604.298C144.102 604.298 143.578 604.224 143.055 604.111C140.118 603.402 138.547 600.599 139.183 597.124C142.699 578.33 131.009 560.04 112.454 555.313L111.799 555.164C111.107 555.033 110.433 554.828 109.797 554.529C107.385 553.576 106.038 550.979 106.655 548.457C106.898 546.944 107.759 545.58 109.031 544.72C110.134 544.011 111.5 543.805 112.772 544.16C116.943 545.075 121.02 546.42 124.911 548.195C140.904 556.21 151.042 572.52 151.098 590.399V590.529C150.986 591.445 150.873 592.398 150.78 593.257C150.555 595.312 150.312 597.442 149.882 599.534C149.657 601.104 148.816 602.505 147.544 603.439C146.683 604.018 145.655 604.317 144.626 604.298ZM111.5 545.953C110.976 545.953 110.471 546.084 110.041 546.364C109.218 546.944 108.656 547.84 108.488 548.831C108.058 550.531 108.974 552.268 110.62 552.866C111.125 553.09 111.668 553.24 112.21 553.333L112.921 553.501C132.393 558.508 144.663 577.713 140.978 597.461C140.511 599.964 141.465 601.814 143.429 602.281C144.42 602.58 145.468 602.449 146.365 601.944C147.245 601.291 147.824 600.319 147.974 599.235C148.386 597.236 148.61 595.144 148.853 593.108C148.947 592.23 149.04 591.239 149.171 590.436C149.078 573.267 139.314 557.611 123.938 549.951C120.179 548.233 116.232 546.925 112.192 546.047C111.967 546.028 111.724 546.028 111.5 546.047V545.953Z" fill="#263238"/>
<path d="M134.656 592.809C134.506 593.93 134.357 596.097 133.927 598.189C133.627 600.655 131.383 602.393 128.932 602.094H128.727C126.164 601.589 124.481 599.123 124.967 596.564V596.489C125.341 593.78 125.397 591.015 125.135 588.288C123.377 577.956 117.261 571.361 107.141 568.484C103.849 567.55 102.166 565.476 102.764 562.88C103.363 560.283 105.869 558.863 109.292 559.592C123.714 562.768 134.675 576.648 134.637 592.809H134.656Z" fill="#263238"/>
<path d="M129.531 603.065H128.577C125.528 602.561 123.452 599.665 123.975 596.601C123.975 596.022 124.069 595.424 124.125 594.826C124.387 592.771 124.387 590.679 124.125 588.624C122.442 578.76 116.643 572.333 106.804 569.549C103.063 568.484 101.062 565.906 101.773 562.842C102.484 559.778 105.514 557.985 109.386 558.863C124.574 562.17 135.572 576.499 135.572 592.977V593.089C135.572 593.444 135.535 593.799 135.442 594.154C135.329 595.331 135.142 596.938 134.824 598.526C134.375 601.122 132.168 603.028 129.531 603.065ZM107.384 560.339C105.607 560.171 103.999 561.366 103.643 563.104C102.97 566.037 106.019 567.233 107.384 567.606C117.953 570.595 124.219 577.508 126.089 588.157C126.37 590.38 126.37 592.622 126.089 594.845C126.089 595.424 125.977 596.003 125.939 596.583C125.453 598.582 126.669 600.618 128.689 601.104C128.745 601.104 128.82 601.141 128.876 601.141C130.84 601.44 132.673 600.095 132.972 598.133V597.984C133.272 596.489 133.44 594.92 133.571 593.78C133.552 593.425 133.571 593.07 133.683 592.734C133.683 577.172 123.321 563.627 109.012 560.507C108.469 560.395 107.927 560.339 107.384 560.339Z" fill="#263238"/>
<path d="M109.928 594.359C110.583 589.072 107.16 584.14 101.96 582.907C98.78 581.936 97.3024 579.694 98.0506 577.003C98.7988 574.313 101.268 573.267 104.541 574.108C114.286 576.723 120.478 586.251 118.888 596.209C118.308 599.497 116.587 601.01 113.763 600.711C110.938 600.412 109.648 598.488 109.853 595.107C109.872 594.864 109.909 594.602 109.928 594.359Z" fill="#263238"/>
<path d="M114.417 601.683H113.669C110.396 601.347 108.675 598.955 108.937 595.107V594.322C109.554 589.465 106.393 584.943 101.623 583.841C97.8822 582.702 96.1988 579.993 97.0779 576.779C97.9571 573.566 100.95 572.277 104.71 573.23C114.904 575.995 121.394 585.971 119.767 596.396C119.206 599.815 117.298 601.683 114.417 601.683ZM102.484 574.762C100.838 574.593 99.3038 575.677 98.911 577.284C98.2937 579.488 99.4909 581.226 102.203 582.066C107.796 583.43 111.499 588.736 110.826 594.453V595.2C110.545 599.46 113.071 599.721 113.894 599.815C115.353 599.964 117.373 599.815 118.009 596.078C119.542 586.606 113.632 577.508 104.335 575.042C103.737 574.874 103.101 574.78 102.484 574.762Z" fill="#263238"/>
<path d="M83.7043 573.79C83.3115 573.79 82.9561 573.547 82.8252 573.174L81.7403 570.128C81.5346 569.661 81.7403 569.101 82.2079 568.895C82.6569 568.671 83.218 568.877 83.4237 569.325V569.512L84.5273 572.538C84.6957 573.024 84.4338 573.566 83.9475 573.734C83.8727 573.771 83.7791 573.79 83.7043 573.79Z" fill="white"/>
<path d="M81.4408 567.401C81.048 567.401 80.6926 567.158 80.5616 566.784L73.0797 545.711C72.9114 545.206 73.1919 544.646 73.697 544.478C74.202 544.291 74.7444 544.552 74.9128 545.038V545.075L82.4134 566.149C82.5818 566.635 82.3386 567.177 81.8523 567.345C81.7213 567.382 81.5717 567.401 81.4221 567.382L81.4408 567.401Z" fill="white"/>
<path d="M134.301 637.198C134.076 637.198 133.852 637.123 133.684 636.974L115.521 621.131C115.128 620.795 115.091 620.197 115.428 619.805C115.764 619.412 116.363 619.375 116.756 619.711L134.918 635.573C135.255 635.928 135.255 636.488 134.918 636.843C134.769 637.048 134.544 637.179 134.301 637.198Z" fill="white"/>
<path d="M114.174 619.637C113.95 619.637 113.725 619.562 113.557 619.412L110.564 616.816C110.19 616.461 110.19 615.863 110.564 615.489C110.882 615.097 111.462 615.041 111.855 615.377L114.848 617.974C115.203 618.347 115.203 618.927 114.848 619.3C114.679 619.506 114.436 619.637 114.174 619.637Z" fill="white"/>
<path d="M500.691 602.636L314.335 631.687C301.915 633.555 289.251 623.242 286.072 608.483L189.293 159.995C183.681 138.847 202.742 127.582 215.162 125.639L392.371 100.716C404.791 98.8482 417.436 109.161 420.634 123.92L529.852 571.679C533.032 586.457 525.381 598.955 500.691 602.636Z" fill="white"/>
<path d="M311.342 632.864C299.539 632.864 288.185 622.663 285.155 608.689L188.376 160.182C186.244 153.102 187.329 145.423 191.369 139.221C197.205 130.328 207.755 125.844 215.031 124.723L392.24 99.7823C405.109 97.7833 418.259 108.526 421.532 123.733L530.75 571.474C532.452 577.844 531.348 584.645 527.72 590.156C522.931 597.068 513.897 601.552 500.822 603.514L314.484 632.565C313.456 632.752 312.389 632.845 311.342 632.864ZM395.364 101.408C394.41 101.408 393.456 101.482 392.502 101.632L215.293 126.573C208.428 127.638 198.458 131.86 192.94 140.248C189.181 146.021 188.189 153.158 190.191 159.753L286.988 608.278C290.075 622.551 302.27 632.565 314.185 630.696L500.541 601.571C513.092 599.703 521.715 595.462 526.167 588.998C529.515 583.897 530.525 577.62 528.935 571.735L419.718 124.144C416.893 111.01 406.325 101.408 395.364 101.408Z" fill="#263238"/>
<path d="M513.429 597.554L327.11 626.605C314.69 628.473 302.046 618.142 298.866 603.383L202.031 154.895C198.851 140.136 206.333 126.61 218.753 124.667L405.109 95.6161C417.529 93.7479 430.192 104.079 433.372 118.838L530.151 567.326C533.35 582.085 525.849 595.611 513.429 597.554Z" fill="#263238"/>
<path d="M324.099 627.726C312.277 627.726 300.924 617.525 297.912 603.551L201.115 155.063C199.281 147.385 200.666 139.277 204.949 132.644C208.073 127.937 213.03 124.761 218.604 123.845L404.96 94.7941C417.848 92.7764 430.997 103.519 434.289 118.726L530.993 567.102C532.882 574.818 531.536 582.963 527.252 589.651C524.11 594.359 519.153 597.535 513.579 598.451L327.223 627.502C326.194 627.67 325.146 627.745 324.099 627.726ZM408.121 96.2887C407.167 96.2887 406.213 96.3634 405.259 96.5129L218.903 125.564C213.834 126.386 209.326 129.3 206.483 133.579C202.48 139.837 201.189 147.46 202.948 154.671L299.726 603.159C302.813 617.413 315.008 627.446 326.942 625.577L513.298 596.508C518.367 595.686 522.856 592.771 525.7 588.493C529.721 582.253 531.012 574.612 529.254 567.401L432.456 119.025C429.632 105.947 419.063 96.326 408.14 96.326V96.2887H408.121Z" fill="#263238"/>
<path d="M514.346 544.272L303.972 577.06L215.891 168.87L426.246 136.063L514.346 544.272Z" fill="#43A4EB"/>
<path d="M303.972 577.994C303.542 577.994 303.168 577.695 303.075 577.265L214.975 169.056C214.919 168.813 214.975 168.552 215.106 168.328C215.255 168.122 215.48 167.973 215.742 167.935L426.096 135.148C426.583 135.073 427.05 135.391 427.162 135.877L515.262 544.067C515.318 544.328 515.262 544.59 515.113 544.795C514.963 545.001 514.738 545.15 514.495 545.188L304.122 577.994H303.972ZM217.014 169.635L304.664 576.013L513.186 543.506L425.516 137.128L217.014 169.635Z" fill="#263238"/>
<path d="M267.515 319.961L257.934 339.53L259.614 340.351L269.195 320.782L267.515 319.961Z" fill="white"/>
<path d="M347.857 155.991L276.137 302.473L277.817 303.293L349.537 156.811L347.857 155.991Z" fill="white"/>
<path d="M325.463 157.314L295.449 214.731L297.107 215.595L327.121 158.179L325.463 157.314Z" fill="white"/>
<path d="M466.298 482.368L433.004 548.142L434.674 548.985L467.967 483.211L466.298 482.368Z" fill="white"/>
<path d="M481.732 451.993L471.385 472.434L473.055 473.277L483.401 452.836L481.732 451.993Z" fill="white"/>
<path d="M346.096 129.263L287.98 138.249C285.417 138.399 283.173 136.549 282.817 134.008C282.032 131.748 283.229 129.3 285.492 128.516L285.866 128.404L343.945 119.567C346.507 119.417 348.752 121.267 349.107 123.808C349.818 126.087 348.546 128.497 346.264 129.207L346.096 129.263Z" fill="white"/>
<path d="M287.437 139.295C283.921 138.903 281.414 135.727 281.807 132.233C281.919 131.299 282.219 130.384 282.724 129.581C283.416 128.572 284.501 127.88 285.716 127.712L343.945 118.577C346.993 118.39 349.687 120.538 350.155 123.546C350.547 125.153 350.248 126.853 349.35 128.254C348.658 129.263 347.555 129.954 346.339 130.122L288.204 139.183C287.961 139.239 287.699 139.277 287.437 139.295ZM344.562 120.408H344.15L285.96 129.487C285.249 129.618 284.613 130.029 284.201 130.627C283.584 131.598 283.397 132.775 283.678 133.896C283.958 135.933 285.716 137.446 287.774 137.408L345.909 128.348C346.619 128.217 347.255 127.806 347.648 127.189C348.939 125.041 348.247 122.276 346.096 120.987C345.609 120.706 345.067 120.501 344.506 120.408H344.562Z" fill="#263238"/>
<path d="M420.635 577.825C419.568 572.912 415.36 569.437 411.282 570.091C407.204 570.745 404.661 575.247 405.671 580.161C406.681 585.074 410.945 588.549 415.023 587.895C419.101 587.241 421.682 582.739 420.635 577.825Z" fill="white"/>
<path d="M414.05 588.904C409.823 588.904 405.764 585.298 404.698 580.366C404.043 577.62 404.548 574.743 406.082 572.37C407.223 570.651 409.018 569.493 411.057 569.176C415.677 568.447 420.41 572.239 421.532 577.639C422.187 580.366 421.7 583.262 420.167 585.616C419.026 587.335 417.211 588.493 415.172 588.829C414.798 588.885 414.424 588.904 414.05 588.904ZM412.18 570.95H411.282C409.748 571.212 408.401 572.071 407.541 573.36C406.306 575.303 405.913 577.676 406.456 579.918C407.41 584.346 411.17 587.503 414.817 586.924C416.351 586.681 417.698 585.803 418.558 584.514C419.811 582.571 420.204 580.217 419.643 577.975C419.026 574.201 415.958 571.324 412.161 570.95H412.18Z" fill="#263238"/>
<path d="M389.453 461.192C389.51 460.444 389.453 459.716 389.285 458.987V458.576C387.826 451.514 379.783 446.993 371.347 448.432C364.707 449.571 359.806 454.036 358.721 459.398C354.943 454.466 348.658 452.131 342.56 453.382C334.124 454.84 328.476 461.733 329.935 468.777C329.935 468.777 329.71 474.811 344.038 483.573C355.803 490.785 365.736 496.651 365.923 496.408C366.166 496.539 373.311 487.814 381.71 477.109C384.983 473.279 387.471 468.833 389.023 464.031C389.229 463.378 389.36 462.724 389.435 462.051C389.435 461.771 389.435 461.472 389.435 461.192H389.453Z" fill="#43A4EB"/>
</g>
<defs>
<clipPath id="clip0_147_156">
<rect width="673" height="697" fill="white"/>
</clipPath>
</defs>
</svg>
