<svg width="889" height="595" viewBox="0 0 889 595" fill="none" xmlns="http://www.w3.org/2000/svg">
<g clip-path="url(#clip0_115_615)">
<path d="M441.66 595C681.135 595 875.269 583.67 875.269 569.694C875.269 555.718 681.135 544.388 441.66 544.388C202.184 544.388 8.05078 555.718 8.05078 569.694C8.05078 583.67 202.184 595 441.66 595Z" fill="#F5F5F5"/>
<g opacity="0.6">
<path d="M324.519 408.872L162.606 187.066L346.838 304.072L313.628 0L431.462 260.346L500.454 33.3983L515.505 270.339L688.555 120.605L578.324 325.891L779.016 264.169L533.284 430.78L437.255 446.742L324.519 408.872Z" fill="#DEDEDE"/>
<path opacity="0.6" d="M324.519 408.872L162.606 187.066L346.838 304.072L313.628 0L431.462 260.346L500.454 33.3983L515.505 270.339L688.555 120.605L578.324 325.891L779.016 264.169L533.284 430.78L437.255 446.742L324.519 408.872Z" fill="#EDEDED"/>
<path d="M538.785 358.373L621.531 204.302L498.575 310.689L487.841 141.731L435.04 315.406L346.189 119.107L370.566 342.188L238.844 258.535L336.595 392.397L438.842 426.756L525.881 412.315L660.734 320.883L538.785 358.373Z" fill="#D9D9D9"/>
</g>
<path d="M862.633 387.367L885.936 380.057C887.032 379.722 888.194 380.325 888.552 381.421L888.91 382.538C889.246 383.634 888.642 384.796 887.546 385.154L869.141 390.944C866.435 391.793 863.55 390.295 862.7 387.591L862.633 387.389H862.655L862.633 387.367Z" fill="#263238"/>
<path d="M466.73 515.014L569.289 487.853L547.082 456.041L505.24 441.824L482.138 449.089L464.292 474.104L464.538 500.014L466.73 515.014Z" fill="#263238"/>
<path d="M744.754 432.748L841.142 397.427L845.793 388.708L833.605 367.337L795.744 352.292L763.003 357.702L740.17 394.141L740.371 426.913L744.754 432.748Z" fill="#263238"/>
<path d="M466.73 515.014L569.289 487.853L547.082 456.041L505.24 441.824L482.138 449.089L464.292 474.104L464.538 500.014L466.73 515.014Z" fill="black"/>
<path d="M744.754 432.748L841.142 397.427L845.793 388.708L833.605 367.337L795.744 352.292L763.003 357.702L740.17 394.141L740.371 426.913L744.754 432.748Z" fill="black"/>
<path d="M435.89 474.931L449.554 493.419L451.634 512.488L448.615 531.49L453.199 530.037L463.732 520.625L460.087 485.885L446.624 471.578L435.89 474.931Z" fill="#0E8CE9"/>
<path opacity="0.6" d="M435.89 474.931L449.554 493.419L451.634 512.488L448.615 531.49L453.199 530.037L463.732 520.625L460.087 485.885L446.624 471.578L435.89 474.931Z" fill="black"/>
<path d="M871.444 349.207L850.422 328.64C845.838 324.147 840.068 321.04 833.784 319.698L755.712 275.302C734.646 263.297 709.509 260.614 686.385 267.902L575.171 302.821C560.724 307.359 549.117 318.245 543.66 332.374L523.22 385.333L471.783 407.129C447.429 417.457 431.663 441.421 431.82 467.867L435.756 474.998L454.362 486.02L457.314 510.722L453.289 530.036L465.924 526.08C470.71 524.559 473.371 519.44 471.85 514.656C471.806 514.544 471.783 514.433 471.739 514.321C471.336 513.248 470.978 512.085 470.665 511.012C464.023 486.355 478.649 460.96 503.316 454.343C527.089 447.949 551.689 461.273 559.337 484.656V484.768C561.26 490.736 567.634 494.023 573.605 492.145L745.425 438.202C751.262 436.414 754.527 430.244 752.738 424.409V424.32C752.514 423.716 752.335 423.113 752.179 422.509C745.224 397.941 759.514 372.389 784.092 365.437C808.2 358.619 833.359 372.233 840.828 396.153C840.963 396.555 841.052 396.935 841.164 397.337L870.796 388.038C876.163 386.361 879.92 381.532 880.211 375.921V374.446C880.323 372.59 880.077 370.713 879.518 368.947L875.291 355.534C874.553 353.142 873.211 350.973 871.444 349.207Z" fill="#0E8CE9"/>
<path opacity="0.3" d="M871.444 349.207L850.422 328.64C845.838 324.147 840.068 321.04 833.784 319.698L755.712 275.302C734.646 263.297 709.509 260.614 686.385 267.902L575.171 302.821C560.724 307.359 549.117 318.245 543.66 332.374L523.22 385.333L471.783 407.129C447.429 417.457 431.663 441.421 431.82 467.867L435.756 474.998L454.362 486.02L457.314 510.722L453.289 530.036L465.924 526.08C470.71 524.559 473.371 519.44 471.85 514.656C471.806 514.544 471.783 514.433 471.739 514.321C471.336 513.248 470.978 512.085 470.665 511.012C464.023 486.355 478.649 460.96 503.316 454.343C527.089 447.949 551.689 461.273 559.337 484.656V484.768C561.26 490.736 567.634 494.023 573.605 492.145L745.425 438.202C751.262 436.414 754.527 430.244 752.738 424.409V424.32C752.514 423.716 752.335 423.113 752.179 422.509C745.224 397.941 759.514 372.389 784.092 365.437C808.2 358.619 833.359 372.233 840.828 396.153C840.963 396.555 841.052 396.935 841.164 397.337L870.796 388.038C876.163 386.361 879.92 381.532 880.211 375.921V374.446C880.323 372.59 880.077 370.713 879.518 368.947L875.291 355.534C874.553 353.142 873.211 350.973 871.444 349.207Z" fill="black"/>
<g opacity="0.2">
<path d="M568.484 481.772C567.232 482.152 565.912 481.459 565.487 480.23C555.737 453.56 526.776 439.275 499.671 447.748C495.489 449.044 491.464 450.878 487.729 453.18C484.397 455.259 480.148 455.147 476.95 452.845C476.95 453.985 477.24 455.527 477.419 456.6C478.068 460.691 478.806 465.319 475.183 466.571C472.365 467.554 470.71 464.76 469.48 462.569C469.771 465.766 470.419 468.94 471.381 472.003C471.739 473.255 471.068 474.551 469.838 474.976C468.586 475.423 467.221 474.753 466.796 473.523L466.752 473.411C464.515 466.034 463.151 457.763 467.557 455.885C470.062 454.767 471.761 456.936 472.946 458.925C472.946 458.344 472.768 457.808 472.7 457.338C472.074 453.314 471.336 448.709 474.937 447.323C476.614 446.831 478.448 447.368 479.588 448.687C481.221 450.05 483.547 450.207 485.358 449.067C489.428 446.585 493.789 444.596 498.352 443.143C527.916 433.888 559.539 449.514 570.161 478.598C570.609 479.872 569.915 481.28 568.641 481.727C568.596 481.727 568.529 481.75 568.484 481.772Z" fill="white"/>
</g>
<path opacity="0.6" d="M431.954 467.8L437.948 471.042C437.948 471.042 453.602 420.654 477.912 410.303L529.348 388.507L523.377 385.266L471.941 407.062C447.564 417.39 431.798 441.332 431.954 467.8Z" fill="black"/>
<path d="M404.312 390.139L406.974 396.398C406.974 396.398 450.605 366.622 476.033 373.663L529.84 388.53L527.178 382.248L473.371 367.404C447.877 360.362 420.638 369.327 404.312 390.139Z" fill="#0E8CE9"/>
<path opacity="0.3" d="M404.312 390.139L406.974 396.398C406.974 396.398 450.605 366.622 476.033 373.663L529.84 388.53L527.178 382.248L473.371 367.404C447.877 360.362 420.638 369.327 404.312 390.139Z" fill="black"/>
<path opacity="0.6" d="M462.525 452.04C464.56 458.523 463.666 464.559 460.513 465.453C457.359 466.347 453.177 462.01 451.142 455.55C449.107 449.089 450.024 443.031 453.155 442.137C456.286 441.242 460.513 445.579 462.525 452.04Z" fill="black"/>
<path opacity="0.5" d="M454.206 442.025C453.133 443.009 452.439 444.327 452.26 445.781L456.04 447.815L456.711 451.883L460.155 455.572L455.682 452.733L454.43 448.709L451.947 448.597C451.992 450.766 452.35 452.934 453.021 455.013C454.832 460.781 458.366 464.916 461.362 465.051C463.733 463.24 464.27 457.83 462.436 452.04C460.602 446.25 457.18 442.137 454.206 442.025Z" fill="white"/>
<path d="M877.72 358.977L851.904 367.084C849.158 367.946 847.632 370.87 848.494 373.615L849.258 376.046C850.121 378.79 853.046 380.316 855.791 379.454L881.607 371.347C884.353 370.485 885.879 367.561 885.017 364.817L884.253 362.385C883.39 359.641 880.465 358.115 877.72 358.977Z" fill="#263238"/>
<path opacity="0.4" d="M877.72 358.977L851.904 367.084C849.158 367.946 847.632 370.87 848.494 373.615L849.258 376.046C850.121 378.79 853.046 380.316 855.791 379.454L881.607 371.347C884.353 370.485 885.879 367.561 885.017 364.817L884.253 362.385C883.39 359.641 880.465 358.115 877.72 358.977Z" fill="white"/>
<g opacity="0.2">
<path d="M741.803 417.792C740.483 417.971 739.298 417.054 739.119 415.735C739.119 415.668 739.119 415.624 739.119 415.557C736.055 383.723 759.358 355.444 791.204 352.359C813.143 350.235 834.366 360.742 845.995 379.476C846.666 380.616 846.264 382.091 845.123 382.74H845.101C843.96 383.388 842.551 383.008 841.88 381.89C826.36 357.009 793.597 349.431 768.706 364.967C751.621 375.631 742.027 395.035 743.95 415.065C744.151 416.361 743.279 417.569 741.982 417.77C741.937 417.77 741.892 417.77 741.825 417.77L741.803 417.792Z" fill="white"/>
</g>
<path d="M688.622 343.439L771.837 317.307C774.588 316.435 776.131 313.506 775.259 310.734C774.856 309.482 774.006 308.432 772.866 307.783L744.889 291.844C728.899 282.723 709.823 280.689 692.245 286.211L669.523 293.342C666.773 294.191 665.252 297.12 666.102 299.87C666.146 300.004 666.191 300.138 666.236 300.25L682.204 340.489C683.255 342.992 686.05 344.267 688.622 343.439Z" fill="#263238"/>
<path d="M647.16 300.361L581.053 321.129C572.644 323.767 565.912 330.071 562.737 338.298L547.082 379.029C546.053 381.734 547.395 384.751 550.101 385.78C551.197 386.205 552.405 386.227 553.523 385.892L663.261 351.42C666.012 350.548 667.533 347.62 666.683 344.87L653.779 303.782C652.907 301.01 649.955 299.49 647.182 300.361H647.16Z" fill="#263238"/>
<path opacity="0.2" d="M545.405 404.245L548.267 409.387L547.216 417.569L550.862 423.426L548.871 436.213L570.296 470.639C572.912 474.864 578.056 476.765 582.797 475.267L695.309 439.946C700.139 438.426 702.823 433.284 701.302 428.455L680.325 361.703C678.826 356.92 673.75 354.237 668.942 355.69L550.593 391.458C545.875 392.933 543.258 397.963 544.734 402.658C544.913 403.194 545.137 403.731 545.405 404.245Z" fill="black"/>
<path opacity="0.2" d="M464.023 435.855L487.304 415.065L533.105 400.691L486.342 422.107L464.023 435.855Z" fill="white"/>
<path opacity="0.2" d="M484.352 432.546L511.143 428.88L540.171 423.157L513.134 435.274L484.352 432.546Z" fill="white"/>
<path opacity="0.2" d="M471.202 436.682L488.914 440.371L480.237 443.098L471.202 436.682Z" fill="black"/>
<path opacity="0.3" d="M559.83 403.284L552.808 407.956L560.657 409.722C561.798 409.968 562.916 409.252 563.162 408.135C563.319 407.464 563.117 406.749 562.648 406.235L559.83 403.284Z" fill="black"/>
<path opacity="0.3" d="M554.06 422.442L561.932 418.239C562.692 417.814 563.631 418.083 564.056 418.82C564.28 419.223 564.324 419.715 564.168 420.162L563.184 422.755L566.27 428.813C566.65 429.596 566.315 430.534 565.554 430.914C565.018 431.183 564.347 431.116 563.877 430.713L554.06 422.442Z" fill="black"/>
<path d="M677.484 362.084C678.021 363.783 675.897 365.973 672.721 366.957C669.545 367.941 652.75 371.719 652.213 370.02C651.677 368.321 667.6 361.793 670.775 360.809C673.951 359.826 676.97 360.385 677.484 362.084Z" fill="#263238"/>
<path opacity="0.4" d="M677.484 362.084C678.021 363.783 675.897 365.973 672.721 366.957C669.545 367.941 652.75 371.719 652.213 370.02C651.677 368.321 667.6 361.793 670.775 360.809C673.951 359.826 676.97 360.385 677.484 362.084Z" fill="white"/>
<path d="M551.823 336.241C553.254 332.821 551.644 328.886 548.222 327.456C547.932 327.344 547.641 327.232 547.35 327.165L546.277 326.875C545.337 328.641 544.51 330.451 543.794 332.307L525.031 380.929L527.782 381.689C531.137 382.65 534.67 380.884 535.9 377.62L551.845 336.308V336.241H551.823Z" fill="#263238"/>
<path opacity="0.2" d="M535.453 368.969L532.591 364.386L538.942 363.805L533.664 362.396L542.274 354.058L535.744 358.35L543.191 349.431L540.955 349.006L546.993 341.919L538.517 349.766L540.06 350.548L534.984 354.997L528.565 371.629L530.556 377.933L529.773 370.601L532.412 367.382L534.447 370.265L535.565 373.842L535.453 368.969Z" fill="white"/>
<path opacity="0.4" d="M845.301 338.544L856.483 350.213C858.809 352.605 858.742 356.428 856.326 358.753C855.655 359.401 854.85 359.893 853.956 360.161L850.937 361.122L830.34 339.729L839.084 336.979C841.276 336.264 843.713 336.867 845.301 338.544Z" fill="black"/>
<path opacity="0.4" d="M844.072 353.924L856.394 350.057L849.26 342.635L836.938 346.502L844.072 353.924Z" fill="white"/>
<path opacity="0.2" d="M688.935 358.999L691.865 368.321C692.536 370.467 694.817 371.651 696.964 370.981L806.188 336.711C808.961 335.883 811.018 333.559 811.51 330.697C811.935 327.769 810.504 324.862 807.91 323.432L800.485 319.207C796.102 316.681 790.846 316.166 786.06 317.776L694.75 347.575C690.031 349.162 687.437 354.237 688.935 358.999Z" fill="black"/>
<path opacity="0.2" d="M556.274 377.71L555.827 369.997L564.459 371.316L560.009 362.642L584.005 368.142L576.647 364.789L582.864 360.519L572.711 363.022L562.021 358.239L564.616 352.672L580.36 351.219L579.13 347.262L587.896 347.016L576.849 344.021L577.296 349.498L567.344 347.307L576.96 335.034L559.025 347.933L550.549 369.863L556.274 377.71Z" fill="white"/>
<path d="M796.66 448.731C817.954 448.731 835.215 431.477 835.215 410.191C835.215 388.906 817.954 371.651 796.66 371.651C775.367 371.651 758.105 388.906 758.105 410.191C758.105 431.477 775.367 448.731 796.66 448.731Z" fill="#263238"/>
<path opacity="0.5" d="M792.814 433.374C806.313 433.374 817.257 422.434 817.257 408.94C817.257 395.445 806.313 384.506 792.814 384.506C779.314 384.506 768.37 395.445 768.37 408.94C768.37 422.434 779.314 433.374 792.814 433.374Z" fill="white"/>
<path d="M802.117 408.403C803.056 411.399 801.401 414.618 798.382 415.557C795.363 416.496 792.165 414.841 791.226 411.823C790.286 408.828 791.941 405.609 794.961 404.67C797.957 403.731 801.133 405.385 802.095 408.381L802.117 408.403Z" fill="#263238"/>
<g opacity="0.4">
<path d="M789.102 399.707L788.476 390.34C784.428 391.995 781.006 394.856 778.658 398.545L787.783 400.78C788.208 400.4 788.632 400.042 789.102 399.707Z" fill="black"/>
<path d="M787.403 418.999C787 418.575 786.642 418.15 786.284 417.68L776.914 418.306C778.569 422.353 781.432 425.773 785.122 428.12L787.403 418.999Z" fill="black"/>
<path d="M796.415 422.956C795.833 422.956 795.274 422.889 794.693 422.8L788.498 429.886C792.546 431.563 796.996 431.965 801.268 431.004L796.415 422.956Z" fill="black"/>
<path d="M783.824 409.834C783.824 409.253 783.891 408.694 783.981 408.113L776.891 401.92C775.214 405.966 774.811 410.415 775.773 414.685L783.824 409.834Z" fill="black"/>
<path d="M809.542 410.37C809.542 410.952 809.475 411.51 809.386 412.092L816.475 418.373C818.152 414.327 818.555 409.879 817.593 405.609L809.542 410.37Z" fill="black"/>
<path d="M805.964 401.205C806.366 401.63 806.724 402.054 807.082 402.524L816.452 401.898C814.797 397.852 811.935 394.431 808.245 392.084L805.964 401.205Z" fill="black"/>
<path d="M805.584 419.379C805.159 419.782 804.734 420.139 804.265 420.497L804.891 429.864C808.939 428.21 812.36 425.348 814.708 421.66L805.584 419.379Z" fill="black"/>
<path d="M798.674 397.404L804.868 390.318C800.82 388.641 796.37 388.239 792.099 389.2L796.952 397.248C797.533 397.248 798.092 397.315 798.674 397.404Z" fill="black"/>
</g>
<path opacity="0.5" d="M799.813 409.118C800.261 410.885 799.187 412.673 797.421 413.098C795.81 413.5 794.133 412.628 793.552 411.086C793.015 409.364 794.938 410.572 796.66 410.035C798.382 409.499 799.277 407.397 799.813 409.118Z" fill="white"/>
<path d="M522.56 536.601C540.341 531.017 549.582 510.029 543.2 489.722C536.818 469.416 517.23 457.48 499.449 463.064C481.668 468.648 472.427 489.636 478.809 509.943C485.191 530.249 504.779 542.184 522.56 536.601Z" fill="#263238"/>
<path opacity="0.5" d="M531.495 493.374C535.543 506.295 529.661 519.641 518.367 523.173C507.074 526.706 494.595 519.15 490.547 506.251C486.499 493.352 492.358 479.984 503.674 476.429C514.99 472.875 527.447 480.475 531.495 493.374Z" fill="white"/>
<path d="M515.773 498.315C516.242 501.042 514.409 503.658 511.68 504.127C508.952 504.596 506.335 502.763 505.866 500.036C505.441 497.555 506.917 495.118 509.31 494.38C512.172 493.71 515.057 495.453 515.773 498.315Z" fill="#263238"/>
<g opacity="0.4">
<path d="M503.919 489.261L503.025 479.961C499.424 481.549 496.472 484.276 494.616 487.741L502.801 490.312C503.159 489.932 503.517 489.596 503.919 489.261Z" fill="black"/>
<path d="M503.092 508.263C502.734 507.838 502.377 507.391 502.064 506.944L493.767 507.212C495.332 511.191 497.971 514.656 501.415 517.227L503.092 508.263Z" fill="black"/>
<path d="M511.232 512.51C510.718 512.488 510.203 512.421 509.711 512.309L504.456 519.015C507.967 520.804 511.97 521.34 515.817 520.58L511.232 512.51Z" fill="black"/>
<path d="M499.604 499.075V497.398L493.096 491.027C491.754 495.096 491.575 499.433 492.559 503.591L499.604 499.075Z" fill="black"/>
<path d="M522.437 500.55C522.459 501.109 522.459 501.668 522.437 502.227L528.944 508.598C530.309 504.552 530.487 500.193 529.503 496.035L522.437 500.55Z" fill="black"/>
<path d="M518.948 491.34C519.306 491.765 519.642 492.212 519.955 492.681L528.274 492.391C526.708 488.412 524.047 484.947 520.626 482.398L518.948 491.34Z" fill="black"/>
<path d="M519.239 509.313C518.881 509.671 518.501 510.029 518.121 510.342L518.993 519.641C522.594 518.077 525.568 515.349 527.424 511.884L519.239 509.313Z" fill="black"/>
<path d="M512.329 487.316L517.584 480.61C514.073 478.821 510.07 478.285 506.224 479.045L510.808 487.182C511.323 487.182 511.815 487.249 512.329 487.316Z" fill="black"/>
</g>
<path opacity="0.5" d="M513.76 498.851C514.476 500.282 513.894 502.026 512.441 502.741C511.009 503.456 509.265 502.875 508.549 501.422C508.415 501.154 508.326 500.863 508.281 500.55C507.744 498.829 509.489 500.103 510.987 499.634C512.485 499.164 513.223 497.197 513.76 498.829V498.851Z" fill="white"/>
<path d="M773.85 306.04L745.805 290.101C729.301 280.734 709.666 278.632 691.574 284.288L668.852 291.42C665.05 292.671 662.971 296.785 664.223 300.607C664.268 300.742 664.312 300.876 664.379 301.01L680.369 341.137C681.778 344.669 685.692 346.502 689.315 345.362L772.53 319.229C776.332 318.044 778.479 313.998 777.294 310.198C776.757 308.432 775.549 306.956 773.939 306.04H773.85ZM773.469 312.746C773.357 314.043 772.485 315.116 771.233 315.473L687.995 341.606C686.385 342.121 684.663 341.293 684.037 339.729L668.069 299.601C667.712 298.774 667.712 297.858 668.069 297.031C668.45 296.226 669.165 295.622 670.015 295.354L692.737 288.2C709.778 282.88 728.25 284.869 743.77 293.677L771.77 309.616C772.91 310.198 773.581 311.383 773.469 312.657V312.746Z" fill="#263238"/>
<path d="M646.556 298.461L580.449 319.207C571.459 322.001 564.235 328.775 560.881 337.56L545.226 378.291C543.772 382.002 545.606 386.182 549.319 387.635C550.862 388.239 552.584 388.284 554.171 387.792L663.91 353.343C667.712 352.136 669.836 348.089 668.651 344.267L655.725 303.178C654.562 299.378 650.536 297.232 646.735 298.417C646.668 298.417 646.623 298.461 646.556 298.461ZM549.542 383.097C548.692 382.203 548.446 380.884 548.894 379.744L564.548 339.013C567.478 331.368 573.762 325.466 581.589 323.052L583.714 322.381L598.563 369.595L552.785 383.969C551.622 384.327 550.37 383.969 549.542 383.097ZM664.693 345.474C665.229 347.15 664.29 348.961 662.613 349.498H662.59L600.666 368.946L585.838 321.733L647.763 302.284C649.441 301.747 651.252 302.686 651.789 304.363L664.693 345.474Z" fill="#263238"/>
<g opacity="0.6">
<path d="M773.85 306.04L745.805 290.101C729.301 280.734 709.666 278.632 691.574 284.288L668.852 291.42C665.05 292.671 662.971 296.785 664.223 300.607C664.268 300.742 664.312 300.876 664.379 301.01L680.369 341.137C681.778 344.669 685.692 346.502 689.315 345.362L772.53 319.229C776.332 318.044 778.479 313.998 777.294 310.198C776.757 308.432 775.549 306.956 773.939 306.04H773.85ZM773.469 312.746C773.357 314.043 772.485 315.116 771.233 315.473L687.995 341.606C686.385 342.121 684.663 341.293 684.037 339.729L668.069 299.601C667.712 298.774 667.712 297.858 668.069 297.031C668.45 296.226 669.165 295.622 670.015 295.354L692.737 288.2C709.778 282.88 728.25 284.869 743.77 293.677L771.77 309.616C772.91 310.198 773.581 311.383 773.469 312.657V312.746Z" fill="black"/>
<path d="M646.556 298.461L580.449 319.207C571.459 322.001 564.235 328.775 560.881 337.56L545.226 378.291C543.772 382.002 545.606 386.182 549.319 387.635C550.862 388.239 552.584 388.284 554.171 387.792L663.91 353.343C667.712 352.136 669.836 348.089 668.651 344.267L655.725 303.178C654.562 299.378 650.536 297.232 646.735 298.417C646.668 298.417 646.623 298.461 646.556 298.461ZM549.542 383.097C548.692 382.203 548.446 380.884 548.894 379.744L564.548 339.013C567.478 331.368 573.762 325.466 581.589 323.052L583.714 322.381L598.563 369.595L552.785 383.969C551.622 384.327 550.37 383.969 549.542 383.097ZM664.693 345.474C665.229 347.15 664.29 348.961 662.613 349.498H662.59L600.666 368.947L585.838 321.733L647.763 302.284C649.441 301.748 651.252 302.686 651.789 304.363L664.693 345.474Z" fill="black"/>
</g>
<path opacity="0.2" d="M450.471 464.648L460.669 474.35L460.087 485.885L450.471 464.648Z" fill="black"/>
<path d="M482.809 378.291L494.147 355.802L485.425 350.66L483.905 351.51L476.994 375.921L481.288 379.163L482.809 378.291Z" fill="#0E8CE9"/>
<path d="M483.905 351.51L492.626 356.674L481.288 379.163L476.994 375.944L483.905 351.51Z" fill="#0E8CE9"/>
<path opacity="0.3" d="M483.905 351.51L492.626 356.674L481.288 379.163L476.994 375.944L483.905 351.51Z" fill="black"/>
<path d="M458.03 344.848L458.299 324.192L467.311 321.084L468.161 322.023L463.599 343.685L458.858 345.787L458.03 344.848Z" fill="#0E8CE9"/>
<path d="M468.161 322.023L459.148 325.131L458.857 345.787L463.599 343.685L468.161 322.023Z" fill="#0E8CE9"/>
<path opacity="0.3" d="M468.161 322.023L459.148 325.131L458.857 345.787L463.599 343.685L468.161 322.023Z" fill="black"/>
<path d="M11.7188 438.493L32.584 458.612L112.221 483.605L173.475 496.616C175.6 497.063 177.836 496.549 179.558 495.23L179.916 494.984C181.593 493.71 183.718 493.195 185.797 493.575L270.041 508.911C271.562 509.179 272.926 509.984 273.933 511.146L282.028 520.558C283.012 521.743 284.399 522.525 285.92 522.793L337.356 532.183L429.271 529.299C431.686 529.232 433.631 527.264 433.631 524.828L433.81 503.21L430.948 462.502L327.65 441.6L270.354 485.394L160.594 463.083L117.387 400.847L40.635 389.67L16.9742 422.308L11.7188 438.493Z" fill="#263238"/>
<path opacity="0.6" d="M11.7188 438.493L32.584 458.612L112.221 483.605L173.475 496.616C175.6 497.063 177.836 496.549 179.558 495.23L179.916 494.984C181.593 493.71 183.718 493.195 185.797 493.575L270.041 508.911C271.562 509.179 272.926 509.984 273.933 511.146L282.028 520.558C283.012 521.743 284.399 522.525 285.92 522.793L337.356 532.183L429.271 529.299C431.686 529.232 433.631 527.264 433.631 524.828L433.81 503.21L430.948 462.502L327.65 441.6L270.354 485.394L160.594 463.083L117.387 400.847L40.635 389.67L16.9742 422.308L11.7188 438.493Z" fill="black"/>
<path d="M457.315 423.269L450.919 421.168C450.919 421.168 446.915 413.232 444.433 411.89C440.81 409.945 431.663 413.254 427.996 411.399C424.753 409.767 422.226 401.428 418.849 400.065C414.801 398.455 405.632 403.887 401.607 402.3C399.751 401.54 398.431 396.622 396.508 396.063C393.757 395.281 385.684 399.685 385.684 399.685L331.161 381.689C331.161 381.689 327.248 367.158 325.28 362.553C323.043 357.367 317.072 347.665 315.641 342.232C314.702 338.7 315.149 331.323 314.59 327.724C313.65 323.879 312.465 320.078 311.101 316.345C309.446 310.913 305.376 306.554 300.076 304.497L289.587 300.361C267.783 291.934 245.24 285.562 222.25 281.382L65.4139 252.947C61.1871 252.186 57.0051 254.601 55.5738 258.647L26.188 341.629C26.0315 342.053 25.8973 342.523 25.8302 342.97L8.67726 437.062C8.3418 438.873 9.5718 440.617 11.3833 440.952C12.6804 441.175 13.9998 440.617 14.7378 439.521L34.06 410.974C38.6669 402.568 48.1267 398.075 57.5418 399.796L106.742 408.738C115.24 410.303 122.083 416.652 124.253 425.013L135.792 469.231C136.732 472.83 139.684 475.535 143.329 476.206L301.82 505.044C305.465 505.714 309.178 504.194 311.325 501.176L337.714 463.843C342.723 456.824 351.356 453.337 359.854 454.901L409.054 463.843C418.491 465.542 425.759 473.121 427.079 482.599L431.865 516.556C432.021 517.674 433.072 518.434 434.168 518.278C435.063 518.144 435.756 517.451 435.89 516.556C435.89 516.556 439.916 464.648 444.836 448.15C447.027 441.511 457.315 423.269 457.315 423.269Z" fill="#0E8CE9"/>
<path opacity="0.5" d="M457.315 423.269L450.919 421.168C450.919 421.168 446.915 413.232 444.433 411.89C440.81 409.945 431.663 413.254 427.996 411.399C424.753 409.767 422.226 401.428 418.849 400.065C414.801 398.455 405.632 403.887 401.607 402.3C399.751 401.54 398.431 396.622 396.508 396.063C393.757 395.281 385.684 399.685 385.684 399.685L331.161 381.689C331.161 381.689 327.248 367.158 325.28 362.553C323.043 357.367 317.072 347.665 315.641 342.232C314.702 338.7 315.149 331.323 314.59 327.724C313.65 323.879 312.465 320.078 311.101 316.345C309.446 310.913 305.376 306.554 300.076 304.497L289.587 300.361C267.783 291.934 245.24 285.562 222.25 281.382L65.4139 252.947C61.1871 252.186 57.0051 254.601 55.5738 258.647L26.188 341.629C26.0315 342.053 25.8973 342.523 25.8302 342.97L8.67726 437.062C8.3418 438.873 9.5718 440.617 11.3833 440.952C12.6804 441.175 13.9998 440.617 14.7378 439.521L34.06 410.974C38.6669 402.568 48.1267 398.075 57.5418 399.796L106.742 408.738C115.24 410.303 122.083 416.652 124.253 425.013L135.792 469.231C136.732 472.83 139.684 475.535 143.329 476.206L301.82 505.044C305.465 505.714 309.178 504.194 311.325 501.176L337.714 463.843C342.723 456.824 351.356 453.337 359.854 454.901L409.054 463.843C418.491 465.542 425.759 473.121 427.079 482.599L431.865 516.556C432.021 517.674 433.072 518.434 434.168 518.278C435.063 518.144 435.756 517.451 435.89 516.556C435.89 516.556 439.916 464.648 444.836 448.15C447.027 441.511 457.315 423.269 457.315 423.269Z" fill="#0A62A3"/>
<path opacity="0.2" d="M354.173 440.192L378.281 409.163C379.198 407.978 380.92 407.755 382.105 408.671C382.866 409.253 383.246 410.169 383.156 411.108L382.038 422.285C381.926 424.364 383.514 426.153 385.594 426.265C386.802 426.332 387.987 425.818 388.747 424.879L398.677 411.197C399.571 409.99 401.271 409.722 402.479 410.594C403.105 411.063 403.507 411.779 403.597 412.561L405.207 432.681C405.431 434.76 407.309 436.257 409.367 436.011C410.373 435.9 411.268 435.408 411.916 434.625L422.047 420.855C422.941 419.648 424.663 419.402 425.871 420.296C426.654 420.877 427.079 421.861 426.944 422.822L423.858 446.965L427.101 467.644L382.128 450.117L352.429 448.91L354.173 440.192Z" fill="black"/>
<path opacity="0.2" d="M442.04 430.959C442.04 430.959 433.609 438.627 431.932 441.98C430.948 443.97 428.555 449.424 430.344 450.788C432.133 452.152 437.478 448.15 439.11 446.317C441.57 443.5 444.03 432.166 444.03 432.166C444.254 431.563 443.941 430.87 443.337 430.646C442.89 430.467 442.376 430.602 442.04 430.959Z" fill="black"/>
<path opacity="0.2" d="M363.029 408.515L339.122 415.646C338.72 415.758 338.384 416.048 338.25 416.451L333.084 429.327C332.793 430.02 333.151 430.825 333.844 431.093C334.247 431.25 334.694 431.205 335.052 431.004L358.109 417.591C358.221 417.524 358.333 417.434 358.422 417.323L364.438 410.616C364.863 409.99 364.706 409.141 364.08 408.716C363.767 408.515 363.387 408.425 363.029 408.515Z" fill="black"/>
<path d="M62.4389 258.803C65.1226 262.783 69.3046 265.488 74.0233 266.359L306.382 308.633C304.57 306.844 302.423 305.458 300.075 304.519L289.587 300.361C267.782 291.934 245.239 285.562 222.25 281.382L65.4133 252.946C63.244 252.566 61.03 252.991 59.1738 254.176L62.4389 258.803Z" fill="#0E8CE9"/>
<path d="M71.9743 280.727L63.1884 328.958C62.5644 332.384 64.8365 335.666 68.2631 336.29L144.368 350.142C147.794 350.766 151.078 348.495 151.702 345.07L160.488 296.838C161.112 293.413 158.84 290.13 155.413 289.507L79.3086 275.654C75.882 275.03 72.5983 277.302 71.9743 280.727Z" fill="#263238"/>
<path d="M301.194 378.649L184.903 357.478C182.085 356.987 180.229 354.304 180.721 351.487L189.912 301.032C190.426 298.215 193.11 296.36 195.928 296.852L290.057 313.976C292.069 314.356 293.679 315.898 294.171 317.888C294.171 317.888 296.095 324.594 296.408 326.986C296.855 331.211 296.072 339.796 296.989 343.931C298.085 348.849 303.162 357.724 304.906 362.464C305.756 364.856 307.142 372.367 307.142 372.367C307.813 375.139 306.091 377.933 303.318 378.581C302.625 378.738 301.887 378.76 301.194 378.649Z" fill="#263238"/>
<path opacity="0.2" d="M299.024 349.811C298.107 347.91 297.347 345.943 296.788 343.931C296.296 339.013 296.139 334.095 296.34 329.155L284.89 316.815L292.628 330.831L262.75 312.768L289.587 337.739H266.217L251.032 331.189L232.269 331.524L250.495 334.14L266.149 342.12L276.996 342.925L267.223 351.443L256.533 352.292L247.945 361.01L258.21 354.706H268.721L283.056 343.998L290.079 345.273L278.897 357.501L267.223 364.52L288.357 357.613L284.957 357.009L293.567 348.29L289.095 367.337L299.024 349.811Z" fill="white"/>
<path opacity="0.3" d="M34.6391 345.836L34.603 346.034C34.3552 347.394 35.2576 348.698 36.6185 348.946L317.296 400.035C318.657 400.283 319.961 399.381 320.209 398.02L320.245 397.822C320.493 396.462 319.591 395.158 318.23 394.911L37.552 343.821C36.191 343.574 34.8869 344.476 34.6391 345.836Z" fill="white"/>
<path opacity="0.3" d="M148.284 429.091L148.248 429.289C148 430.649 148.902 431.953 150.263 432.201L295.453 458.629C296.814 458.876 298.118 457.974 298.366 456.614L298.402 456.416C298.65 455.055 297.748 453.752 296.387 453.504L151.197 427.076C149.836 426.829 148.531 427.731 148.284 429.091Z" fill="white"/>
<path d="M176.876 383.743L176.84 383.941C176.592 385.301 177.495 386.605 178.856 386.853L192.783 389.388C194.144 389.635 195.448 388.733 195.696 387.373L195.732 387.175C195.98 385.815 195.077 384.511 193.716 384.263L179.789 381.728C178.428 381.481 177.124 382.383 176.876 383.743Z" fill="#0E8CE9"/>
<path d="M308.82 378.961L311.391 364.744C311.749 362.844 310.497 361.033 308.596 360.675L303.005 359.669C299.919 359.066 296.922 361.077 296.318 364.162V364.252L293.389 380.191C292.762 383.276 294.775 386.272 297.861 386.897L305.532 388.306L307.768 391.614L311.011 392.218L312.398 384.573L308.82 378.961Z" fill="#0E8CE9"/>
<path d="M113.636 494.289C126.289 471.092 117.733 442.034 94.5268 429.386C71.3205 416.739 42.2513 425.291 29.5988 448.488C16.9463 471.685 25.5019 500.743 48.7081 513.391C71.9144 526.038 100.984 517.486 113.636 494.289Z" fill="#263238"/>
<path opacity="0.4" d="M99.9877 480.095C100.323 478.978 100.614 477.86 100.838 476.72C101.039 475.58 101.173 474.417 101.24 473.255L90.5502 469.79C90.416 468.225 90.0806 466.682 89.5662 465.185L97.9079 457.562C96.7897 455.527 95.4255 453.627 93.8824 451.906L83.8411 456.913C82.6335 455.885 81.314 455.035 79.8828 454.342L80.3748 443.165C79.2789 442.807 78.1384 442.517 76.9978 442.315C75.8573 442.114 74.6944 441.98 73.5315 441.913L70.0428 452.643C68.4549 452.778 66.9118 453.113 65.4135 453.649L57.7427 445.199C55.6853 446.295 53.762 447.614 52.0176 449.156L57.1389 459.216C56.1326 460.423 55.2604 461.764 54.5895 463.195L43.4076 462.681C43.0722 463.799 42.7815 464.939 42.5578 466.079C42.3565 467.219 42.2224 468.359 42.1553 469.521L52.9122 473.031C53.0464 474.618 53.3818 476.161 53.8962 477.659L45.5546 485.282C46.6504 487.338 47.9698 489.239 49.5129 490.982L59.5766 485.885C60.7842 486.891 62.126 487.741 63.5573 488.434L63.0653 499.611C64.1835 499.947 65.3017 500.237 66.4422 500.438C67.5827 500.64 68.7233 500.796 69.8862 500.863L73.3973 490.11C74.9851 489.976 76.5282 489.641 78.0266 489.127L85.6526 497.443C87.71 496.37 89.6333 495.029 91.3553 493.486L86.0775 483.56C87.1062 482.353 87.956 481.012 88.627 479.581L99.9877 480.095Z" fill="white"/>
<path opacity="0.6" d="M77.6911 438.135C59.3081 434.804 41.6856 446.988 38.3534 465.363C35.0212 483.739 47.2094 501.355 65.5923 504.686C83.9752 508.017 101.598 495.833 104.93 477.458C108.285 459.082 96.0963 441.488 77.7358 438.135H77.6911ZM66.3303 500.573C50.2285 497.622 39.5387 482.197 42.4907 466.079C45.4427 449.983 60.8736 439.298 76.9978 442.248C93.0996 445.199 103.767 460.624 100.837 476.72C97.9078 492.815 82.4769 503.501 66.3527 500.573H66.3303Z" fill="white"/>
<path opacity="0.6" d="M87.1507 474.261C85.5852 482.823 77.3554 488.479 68.7901 486.914C60.2248 485.349 54.5668 477.122 56.1323 468.56C57.6978 459.998 65.9052 454.342 74.4705 455.907C82.991 457.405 88.6938 465.498 87.1954 474.015C87.1954 474.104 87.1731 474.171 87.1507 474.261Z" fill="white"/>
<path opacity="0.5" d="M79.6592 472.852C78.8541 477.279 74.6273 480.207 70.1993 479.402C65.7713 478.598 62.8417 474.373 63.6468 469.946C64.4519 465.52 68.6786 462.591 73.1066 463.396C77.5346 464.201 80.4643 468.426 79.6592 472.852Z" fill="white"/>
<path opacity="0.2" d="M348.158 397.337L363.41 401.451C364.237 401.629 364.751 402.434 364.573 403.261C364.438 403.843 363.991 404.312 363.41 404.424L349.991 407.106C349.186 407.263 348.404 406.771 348.202 405.989L346.458 399.282C346.234 398.455 346.704 397.606 347.531 397.382C347.733 397.315 347.956 397.315 348.158 397.337Z" fill="black"/>
<path d="M440.81 470.393C435.711 458.389 424.932 449.76 412.095 447.435L362.895 438.493C348.045 435.833 332.995 441.98 324.273 454.275L294.328 496.616L153.437 470.975L140.376 420.855C136.575 406.257 124.632 395.191 109.783 392.486L60.5829 383.544C44.1233 380.549 27.5966 388.44 19.5904 403.105C18.5393 405.005 16.4147 406.033 14.2678 405.653L9.79508 404.826C6.91017 404.312 4.13708 406.235 3.60035 409.118L0.0892556 428.478C-0.268563 430.423 0.491801 432.39 2.03489 433.619L9.03472 439.096C9.48199 440.102 10.3989 440.818 11.4947 441.019C12.7918 441.242 14.1113 440.684 14.8493 439.588L34.1715 411.041C38.7784 402.635 48.2382 398.142 57.6533 399.863L106.853 408.805C115.352 410.37 122.195 416.719 124.364 425.08L135.904 469.298C136.843 472.897 139.795 475.602 143.44 476.273L301.932 505.111C305.577 505.781 309.289 504.261 311.436 501.243L337.825 463.91C342.835 456.891 351.467 453.404 359.965 454.968L409.165 463.91C418.603 465.609 425.871 473.188 427.19 482.666L431.976 516.623C432.133 517.741 433.184 518.501 434.28 518.345C435.174 518.211 435.867 517.518 436.002 516.623C436.002 516.623 437.925 491.273 440.81 470.393Z" fill="#0E8CE9"/>
<path d="M392.057 466.66C392.057 466.66 397.603 468.292 399.235 466.369C399.235 466.369 408.181 478.061 413.414 479.604C413.414 479.604 419.899 495.386 422.695 496.839C422.695 496.839 422.069 511.102 425.468 514.276C425.468 514.276 418.446 525.454 417.864 533.345C417.864 533.345 415.382 533.121 415.292 538.017C415.292 538.017 413.973 534.642 411.245 534.016L412.005 520.133L415.561 505.826L414.733 500.058L405.251 483.382L396.932 474.864L392.057 466.66Z" fill="#263238"/>
<path opacity="0.4" d="M392.057 466.66C392.057 466.66 397.603 468.292 399.235 466.369C399.235 466.369 408.181 478.061 413.414 479.604C413.414 479.604 419.899 495.386 422.695 496.839C422.695 496.839 422.069 511.102 425.468 514.276C425.468 514.276 418.446 525.454 417.864 533.345C417.864 533.345 415.382 533.121 415.292 538.017C415.292 538.017 413.973 534.642 411.245 534.016L412.005 520.133L415.561 505.826L414.733 500.058L405.251 483.382L396.932 474.864L392.057 466.66Z" fill="white"/>
<path d="M373.429 558.114C399.86 558.114 421.287 536.696 421.287 510.275C421.287 483.853 399.86 462.435 373.429 462.435C346.997 462.435 325.57 483.853 325.57 510.275C325.57 536.696 346.997 558.114 373.429 558.114Z" fill="#263238"/>
<path opacity="0.6" d="M404.715 509.716C404.424 491.049 390 476.183 372.533 476.429C355.067 476.675 341.224 492.078 341.448 510.744C341.672 529.41 356.163 544.277 373.629 544.053C391.095 543.829 405.028 528.404 404.715 509.716ZM373.562 539.895C358.243 540.141 345.608 527.063 345.339 510.677C345.071 494.291 357.281 480.833 372.601 480.587C387.92 480.341 400.555 493.397 400.823 509.783C401.092 526.169 388.881 539.649 373.562 539.895Z" fill="white"/>
<path opacity="0.4" d="M400.667 513.27C400.779 512.108 400.846 510.945 400.824 509.783C400.824 508.62 400.712 507.458 400.555 506.318L390.067 504.954C389.664 503.434 389.06 501.981 388.3 500.617L394.562 491.519C393.198 489.73 391.61 488.121 389.865 486.69L381.569 493.665C380.271 492.905 378.907 492.324 377.454 491.921L375.866 480.744C374.792 480.632 373.697 480.565 372.601 480.587C371.505 480.587 370.431 480.677 369.358 480.855L368.106 492.033C366.674 492.48 365.332 493.106 364.058 493.888L355.537 487.182C353.86 488.68 352.362 490.334 351.064 492.167L357.595 501.109C356.879 502.54 356.342 504.038 355.984 505.58L345.541 507.279C345.295 509.582 345.339 511.929 345.652 514.231L356.141 515.573C356.544 517.093 357.147 518.546 357.908 519.91L351.668 529.008C353.032 530.796 354.598 532.428 356.342 533.837L364.639 526.884C365.936 527.644 367.301 528.226 368.754 528.628L370.364 539.806C371.438 539.94 372.534 539.984 373.607 539.984C374.703 539.962 375.776 539.873 376.85 539.716L378.102 528.539C379.533 528.091 380.898 527.466 382.15 526.661L390.671 533.367C392.37 531.892 393.869 530.215 395.143 528.382L388.613 519.44C389.329 518.032 389.865 516.512 390.223 514.969L400.667 513.27Z" fill="white"/>
<path opacity="0.3" d="M390.447 465.609C392.169 469.186 392.639 473.232 391.767 477.1C391.767 477.1 406.885 476.094 405.185 491.765C405.185 491.765 423.411 503.345 410.261 514.12C410.261 514.12 414.13 528.852 406.214 536.296C408.674 535.715 411.245 535.715 413.705 536.296C428.041 514.097 421.667 484.499 399.482 470.147C396.664 468.337 393.668 466.817 390.537 465.632H390.447V465.609Z" fill="white"/>
<path opacity="0.9" d="M393.488 466.906C395.725 471.422 398.699 475.513 402.322 479.022C411.983 488.814 418.625 499.88 415.427 509.671C412.632 518.3 410.954 530.707 414.309 535.156C428.04 512.6 420.884 483.203 398.319 469.477C396.753 468.538 395.143 467.666 393.488 466.906Z" fill="black"/>
<path opacity="0.6" d="M387.83 510.029C387.428 518.188 380.473 524.448 372.332 524.045C364.17 523.643 357.908 516.691 358.31 508.553C358.691 500.774 365.042 494.649 372.824 494.514C381.255 494.671 387.965 501.601 387.83 510.029Z" fill="white"/>
<path opacity="0.5" d="M380.697 510.029C380.473 514.231 376.872 517.451 372.668 517.227C368.464 517.003 365.243 513.404 365.467 509.202C365.668 505.2 368.956 502.048 372.959 501.981C377.32 502.07 380.764 505.647 380.697 510.006V510.029Z" fill="white"/>
<path d="M383.648 380.839L362.939 354.684L349.834 360.943V363.134L376.313 385.69L383.648 383.03V380.839Z" fill="#0E8CE9"/>
<path d="M349.834 363.134L362.939 356.852L383.648 383.03L376.313 385.69L349.834 363.134Z" fill="#0E8CE9"/>
<path opacity="0.6" d="M349.834 363.134L362.939 356.852L383.648 383.03L376.313 385.69L349.834 363.134Z" fill="#0C77C6"/>
<path d="M342.522 369.259L339.682 349.363L330.938 348.581L330.267 349.721L337.199 369.505L341.851 370.4L342.522 369.259Z" fill="#0E8CE9"/>
<path d="M330.267 349.721L339.011 350.504L341.851 370.4L337.199 369.505L330.267 349.721Z" fill="#0E8CE9"/>
<path opacity="0.6" d="M330.267 349.721L339.011 350.504L341.851 370.4L337.199 369.505L330.267 349.721Z" fill="#0C77C6"/>
<path d="M417.194 369.304L450.873 355.31L447.608 340.109L445.26 339.505L413.929 360.407L414.823 368.678L417.194 369.304Z" fill="#0E8CE9"/>
<path d="M445.26 339.505L448.525 354.706L414.823 368.678L413.929 360.407L445.26 339.505Z" fill="#0E8CE9"/>
<path opacity="0.4" d="M445.26 339.505L448.525 354.706L414.823 368.678L413.929 360.407L445.26 339.505Z" fill="#0C77C6"/>
<path d="M403.932 295.466L398.162 276.062L389.44 276.732L388.948 277.984L398.744 296.606L403.44 296.718L403.932 295.466Z" fill="#0E8CE9"/>
<path d="M388.948 277.984L397.67 277.291L403.44 296.717L398.744 296.606L388.948 277.984Z" fill="#0E8CE9"/>
<path opacity="0.4" d="M388.948 277.984L397.67 277.291L403.44 296.717L398.744 296.606L388.948 277.984Z" fill="#0C77C6"/>
</g>
<defs>
<clipPath id="clip0_115_615">
<rect width="889" height="595" fill="white"/>
</clipPath>
</defs>
</svg>
