<svg width="34" height="34" viewBox="0 0 34 34" fill="none" xmlns="http://www.w3.org/2000/svg">
<path d="M15.5381 0C16.5122 0 17.4862 0 18.4602 0C18.5354 0.0146184 18.6106 0.0345525 18.6871 0.0425262C21.2952 0.304328 23.7489 1.06913 25.9385 2.50506C31.6956 6.28191 34.4015 11.6249 33.9524 18.5075C33.7808 21.1455 32.9312 23.5907 31.5426 25.8353C27.7941 31.898 20.9585 35.0489 13.9486 33.6854C7.0831 32.3498 2.65267 28.1563 0.572184 21.4917C0.26214 20.4976 0.137058 19.465 0 18.4364V15.5187C0.0791742 14.9845 0.146373 14.4476 0.240184 13.916C1.36526 7.54507 6.24811 2.23661 12.5115 0.557492C13.5069 0.291039 14.5202 0.136881 15.5381 0ZM26.7489 16.9766C26.6791 15.4277 26.7516 13.8669 26.6039 12.314C26.4369 10.5558 25.7063 9.11522 24.1628 8.16237C23.1721 7.55039 22.0623 7.35769 20.924 7.32314C18.413 7.24673 15.9014 7.23211 13.3898 7.31184C12.8582 7.32846 12.3279 7.35836 11.8056 7.45404C9.69186 7.8401 8.26339 9.0202 7.62002 11.0953C7.43905 11.6801 7.35389 12.2854 7.33792 12.8907C7.26141 15.8071 7.18223 18.7248 7.39847 21.6378C7.51889 23.2558 8.18222 24.616 9.52952 25.5908C10.5375 26.3204 11.7005 26.5868 12.9074 26.624C15.8269 26.7131 18.7477 26.7636 21.6658 26.5729C24.3917 26.3948 26.4176 24.3516 26.6125 21.6226C26.7223 20.0777 26.6817 18.5301 26.7496 16.9772L26.7489 16.9766Z" fill="#011626"/>
<path d="M17.015 8.93852C18.3537 8.93453 19.6923 8.92855 21.0296 9.00231C21.494 9.02822 21.9544 9.09002 22.4029 9.21892C23.8493 9.63555 24.7568 10.7658 24.9238 12.3399C25.003 13.0881 25.0356 13.8383 25.0389 14.5885C25.0482 16.6989 25.0875 18.8092 24.987 20.9189C24.967 21.3389 24.9205 21.7562 24.8193 22.1642C24.4281 23.7522 23.2877 24.7277 21.6224 24.8905C19.6584 25.0819 17.6877 25.0028 15.7196 25.0147C14.6025 25.0214 13.4854 25.0034 12.373 24.8918C10.5128 24.7051 9.26659 23.4632 9.07364 21.6133C8.99314 20.8432 8.9592 20.0711 8.95654 19.2983C8.94989 17.2105 8.90465 15.1214 9.01177 13.0343C9.06499 11.9918 9.25328 10.9924 9.99512 10.1831C10.7955 9.30929 11.8501 9.07207 12.9665 9.00363C14.3144 8.9219 15.6644 8.93519 17.0144 8.93852H17.015ZM21.9611 16.9952C21.9651 14.2377 19.7768 12.029 17.0336 12.0217C14.2532 12.0144 12.0403 14.2005 12.0364 16.9594C12.0324 19.7162 14.222 21.9263 16.9645 21.9336C19.7442 21.9416 21.9577 19.7541 21.9617 16.9952H21.9611ZM23.3443 11.805C23.3682 11.217 22.8626 10.6754 22.2571 10.6402C21.6537 10.605 21.1021 11.12 21.0762 11.7419C21.0516 12.3373 21.5492 12.8709 22.1607 12.9047C22.7668 12.938 23.319 12.425 23.3443 11.8057V11.805Z" fill="#011626"/>
<path d="M13.7197 16.9786C13.7197 15.1433 15.1662 13.7014 17.0058 13.7028C18.8408 13.7041 20.2799 15.1506 20.2772 16.9926C20.2746 18.8218 18.8221 20.2558 16.9752 20.2518C15.1615 20.2478 13.7197 18.7979 13.7197 16.9779V16.9786Z" fill="#011626"/>
</svg>
