<svg width="189" height="75" viewBox="0 0 189 75" fill="none" xmlns="http://www.w3.org/2000/svg">
<path d="M29.511 41.0342L0 56.6004L14.7447 31.2621L29.4894 5.94531" fill="#0E8CE9"/>
<path d="M30.873 41.0342L60.3624 56.6004L45.6393 31.2621L30.8947 5.94531L30.873 41.0342Z" fill="#045899"/>
<path d="M60.3624 57.6165L30.1163 42.0935L0 57.6165L30.1163 72.9665L60.3624 57.6165Z" fill="#0E8CE9"/>
<path d="M71.666 33.6187V14.7505H75.6552V23.0698H75.904L82.6939 14.7505H87.4755L80.4736 23.1988L87.5584 33.6187H82.7861L77.6176 25.8613L75.6552 28.2567V33.6187H71.666Z" fill="black"/>
<path d="M94.8896 33.895C93.434 33.895 92.181 33.6002 91.1307 33.0106C90.0866 32.4148 89.282 31.5734 88.7169 30.4862C88.1519 29.393 87.8693 28.1001 87.8693 26.6076C87.8693 25.1519 88.1519 23.8744 88.7169 22.775C89.282 21.6756 90.0774 20.8188 91.1031 20.2046C92.1349 19.5904 93.3449 19.2833 94.733 19.2833C95.6666 19.2833 96.5357 19.4337 97.3403 19.7347C98.151 20.0295 98.8573 20.4748 99.4592 21.0706C100.067 21.6664 100.54 22.4157 100.878 23.3186C101.216 24.2153 101.385 25.2656 101.385 26.4694V27.5473H89.4355V25.1151H97.6904C97.6904 24.55 97.5675 24.0494 97.3218 23.6134C97.0762 23.1773 96.7353 22.8364 96.2992 22.5907C95.8693 22.3389 95.3687 22.213 94.7975 22.213C94.2017 22.213 93.6735 22.3512 93.2128 22.6276C92.7583 22.8978 92.4021 23.2633 92.1441 23.7239C91.8862 24.1784 91.7541 24.6851 91.748 25.2441V27.5565C91.748 28.2567 91.877 28.8617 92.1349 29.3715C92.399 29.8813 92.7706 30.2743 93.2497 30.5507C93.7288 30.8271 94.2969 30.9653 94.9541 30.9653C95.3902 30.9653 95.7894 30.9039 96.1518 30.7811C96.5142 30.6582 96.8243 30.474 97.0823 30.2283C97.3403 29.9826 97.5368 29.6816 97.6719 29.3254L101.302 29.5649C101.118 30.4371 100.74 31.1987 100.169 31.8498C99.6036 32.4947 98.8727 32.9983 97.976 33.3607C97.0854 33.7169 96.0566 33.895 94.8896 33.895Z" fill="black"/>
<path d="M107.871 25.4375V33.6187H103.946V19.4675H107.686V21.9642H107.852C108.165 21.1412 108.691 20.4902 109.428 20.0111C110.165 19.5259 111.058 19.2833 112.109 19.2833C113.091 19.2833 113.948 19.4982 114.679 19.9282C115.41 20.3581 115.978 20.9723 116.383 21.7708C116.789 22.5631 116.992 23.509 116.992 24.6084V33.6187H113.067V25.3086C113.073 24.4425 112.852 23.7669 112.403 23.2817C111.955 22.7903 111.338 22.5447 110.552 22.5447C110.023 22.5447 109.557 22.6583 109.151 22.8855C108.752 23.1128 108.439 23.4445 108.212 23.8805C107.99 24.3105 107.877 24.8295 107.871 25.4375Z" fill="black"/>
<path d="M124.01 25.4375V33.6187H120.085V19.4675H123.825V21.9642H123.991C124.304 21.1412 124.829 20.4902 125.566 20.0111C126.304 19.5259 127.197 19.2833 128.247 19.2833C129.23 19.2833 130.087 19.4982 130.818 19.9282C131.549 20.3581 132.117 20.9723 132.522 21.7708C132.928 22.5631 133.13 23.509 133.13 24.6084V33.6187H129.206V25.3086C129.212 24.4425 128.991 23.7669 128.542 23.2817C128.094 22.7903 127.477 22.5447 126.69 22.5447C126.162 22.5447 125.695 22.6583 125.29 22.8855C124.891 23.1128 124.578 23.4445 124.35 23.8805C124.129 24.3105 124.016 24.8295 124.01 25.4375Z" fill="black"/>
<path d="M138.14 38.9253C137.642 38.9253 137.176 38.8854 136.74 38.8056C136.31 38.7318 135.953 38.6366 135.671 38.5199L136.555 35.5902C137.016 35.7315 137.43 35.8083 137.799 35.8206C138.174 35.8328 138.496 35.7468 138.766 35.5626C139.043 35.3783 139.267 35.0651 139.439 34.6229L139.669 34.024L134.593 19.4675H138.72L141.65 29.8598H141.797L144.755 19.4675H148.91L143.41 35.148C143.146 35.9096 142.786 36.5729 142.332 37.138C141.883 37.7092 141.315 38.1484 140.627 38.4555C139.939 38.7687 139.11 38.9253 138.14 38.9253Z" fill="black"/>
<path d="M82.7769 50.2973C82.6724 49.247 82.2087 48.4117 81.3857 47.7914C80.5627 47.171 79.5277 46.8609 78.2809 46.8609C77.4026 46.8609 76.6287 47.0114 75.9593 47.3123C75.2959 47.6133 74.7739 48.0309 74.3931 48.5653C74.0184 49.0935 73.8311 49.6954 73.8311 50.371C73.8311 50.8685 73.9385 51.3046 74.1535 51.6793C74.3685 52.0539 74.6572 52.3764 75.0195 52.6466C75.3881 52.9107 75.7934 53.138 76.2356 53.3284C76.684 53.5188 77.1354 53.6785 77.59 53.8075L79.58 54.3787C80.1819 54.5445 80.7838 54.7564 81.3857 55.0144C81.9876 55.2723 82.5373 55.5978 83.0348 55.9909C83.5385 56.3779 83.9408 56.8539 84.2417 57.4189C84.5488 57.9779 84.7024 58.6504 84.7024 59.4366C84.7024 60.4439 84.4413 61.3498 83.9193 62.1544C83.3972 62.959 82.6479 63.5978 81.6713 64.0707C80.6947 64.5375 79.5247 64.7709 78.1612 64.7709C76.8775 64.7709 75.7627 64.559 74.8169 64.1352C73.871 63.7053 73.1278 63.1126 72.5873 62.3571C72.0468 61.6016 71.7428 60.7264 71.6752 59.7314H73.4441C73.5055 60.4746 73.7512 61.1041 74.1812 61.6201C74.6111 62.136 75.17 62.5291 75.8579 62.7993C76.5458 63.0634 77.3136 63.1955 78.1612 63.1955C79.1009 63.1955 79.9362 63.0389 80.6671 62.7256C81.4041 62.4062 81.9815 61.964 82.3991 61.3989C82.8229 60.8277 83.0348 60.1644 83.0348 59.4089C83.0348 58.7702 82.869 58.2358 82.5373 57.8059C82.2057 57.3698 81.7419 57.0044 81.1462 56.7095C80.5565 56.4147 79.8717 56.1537 79.0917 55.9264L76.8345 55.2631C75.3543 54.8209 74.2057 54.2098 73.3888 53.4297C72.572 52.6497 72.1635 51.6547 72.1635 50.4447C72.1635 49.4313 72.4338 48.5407 72.9743 47.773C73.5209 46.9991 74.2579 46.3972 75.1854 45.9672C76.119 45.5311 77.1662 45.3131 78.327 45.3131C79.5001 45.3131 80.5381 45.5281 81.441 45.958C82.3438 46.3879 83.0594 46.9806 83.5876 47.7361C84.122 48.4854 84.4076 49.3392 84.4444 50.2973H82.7769Z" fill="black"/>
<path d="M94.2286 64.7433C92.9081 64.7433 91.7656 64.4362 90.8014 63.822C89.8371 63.2016 89.0908 62.3448 88.5626 61.2515C88.0405 60.1521 87.7795 58.8869 87.7795 57.4558C87.7795 56.0309 88.0405 54.7656 88.5626 53.66C89.0908 52.5484 89.8186 51.6793 90.7461 51.0528C91.6797 50.4202 92.7576 50.1038 93.9798 50.1038C94.7476 50.1038 95.4877 50.2451 96.2002 50.5276C96.9126 50.804 97.5514 51.2309 98.1165 51.8082C98.6877 52.3795 99.1391 53.1011 99.4708 53.9733C99.8024 54.8393 99.9683 55.865 99.9683 57.0504V57.8612H88.9127V56.4147H98.2915C98.2915 55.5057 98.1072 54.6888 97.7387 53.9641C97.3763 53.2332 96.8696 52.6558 96.2186 52.232C95.5737 51.8082 94.8274 51.5963 93.9798 51.5963C93.0831 51.5963 92.2939 51.8359 91.6121 52.315C90.9303 52.794 90.396 53.4267 90.009 54.2128C89.6282 54.999 89.4348 55.8589 89.4286 56.7925V57.6585C89.4286 58.7825 89.6221 59.7652 90.009 60.6066C90.4021 61.4419 90.958 62.0899 91.6766 62.5506C92.3952 63.0112 93.2459 63.2415 94.2286 63.2415C94.8981 63.2415 95.4846 63.1371 95.9883 62.9283C96.498 62.7195 96.9249 62.44 97.2689 62.0899C97.619 61.7337 97.8831 61.3437 98.0612 60.9199L99.6182 61.4266C99.4032 62.0224 99.05 62.5721 98.5587 63.0757C98.0735 63.5793 97.4654 63.9847 96.7345 64.2918C96.0098 64.5928 95.1744 64.7433 94.2286 64.7433Z" fill="black"/>
<path d="M108.981 70.0499C108.017 70.0499 107.172 69.924 106.447 69.6722C105.723 69.4265 105.111 69.0887 104.614 68.6588C104.116 68.2288 103.729 67.7467 103.453 67.2123L104.798 66.3279C105.001 66.6841 105.271 67.0342 105.609 67.3782C105.953 67.7221 106.398 68.0077 106.945 68.235C107.498 68.4622 108.176 68.5759 108.981 68.5759C110.234 68.5759 111.244 68.2626 112.012 67.6361C112.786 67.0096 113.173 66.0361 113.173 64.7156V61.5279H113.025C112.835 61.9579 112.562 62.3878 112.205 62.8177C111.849 63.2415 111.382 63.5947 110.805 63.8772C110.234 64.1598 109.524 64.301 108.677 64.301C107.547 64.301 106.542 64.0216 105.664 63.4627C104.792 62.9037 104.104 62.1053 103.6 61.0673C103.103 60.0231 102.854 58.7794 102.854 57.336C102.854 55.9049 103.097 54.6458 103.582 53.5587C104.073 52.4716 104.758 51.624 105.637 51.0159C106.515 50.4079 107.537 50.1038 108.704 50.1038C109.57 50.1038 110.289 50.2574 110.86 50.5645C111.431 50.8655 111.889 51.2401 112.233 51.6885C112.583 52.1368 112.856 52.5729 113.053 52.9967H113.219V50.2973H114.822V64.817C114.822 66.0146 114.567 67.0004 114.057 67.7743C113.547 68.5482 112.853 69.1194 111.975 69.4879C111.097 69.8626 110.099 70.0499 108.981 70.0499ZM108.87 62.7993C109.779 62.7993 110.556 62.5813 111.201 62.1452C111.846 61.703 112.341 61.0704 112.684 60.2473C113.028 59.4243 113.2 58.4447 113.2 57.3084C113.2 56.2028 113.031 55.2232 112.694 54.3694C112.356 53.5096 111.865 52.834 111.22 52.3426C110.581 51.8451 109.798 51.5963 108.87 51.5963C107.924 51.5963 107.126 51.8512 106.475 52.361C105.824 52.8708 105.333 53.5587 105.001 54.4247C104.669 55.2846 104.503 56.2458 104.503 57.3084C104.503 58.3894 104.672 59.3445 105.01 60.1736C105.348 60.9966 105.842 61.6416 106.493 62.1083C107.144 62.569 107.937 62.7993 108.87 62.7993Z" fill="black"/>
<path d="M128.155 59.0404V50.2973H129.795V64.4484H128.155V62.0991H128.026C127.695 62.8239 127.17 63.4289 126.451 63.9141C125.732 64.3932 124.854 64.6327 123.816 64.6327C122.913 64.6327 122.112 64.4362 121.411 64.0431C120.711 63.6438 120.162 63.0604 119.762 62.2926C119.363 61.5249 119.163 60.5821 119.163 59.4642V50.2973H120.803V59.3629C120.803 60.4684 121.129 61.359 121.78 62.0346C122.431 62.7041 123.266 63.0389 124.286 63.0389C124.925 63.0389 125.539 62.8853 126.128 62.5782C126.718 62.2711 127.203 61.8227 127.584 61.2331C127.965 60.6373 128.155 59.9064 128.155 59.0404Z" fill="black"/>
<path d="M134.137 64.4484V50.2973H135.731V52.4716H135.85C136.133 51.7591 136.624 51.1848 137.325 50.7488C138.031 50.3065 138.829 50.0854 139.72 50.0854C139.855 50.0854 140.006 50.0885 140.171 50.0946C140.337 50.1008 140.475 50.1069 140.586 50.1131V51.7806C140.512 51.7683 140.383 51.7499 140.199 51.7253C140.015 51.7008 139.815 51.6885 139.6 51.6885C138.863 51.6885 138.206 51.8451 137.629 52.1583C137.057 52.4654 136.606 52.8923 136.274 53.4389C135.943 53.9856 135.777 54.609 135.777 55.3092V64.4484H134.137Z" fill="black"/>
<path d="M148.454 64.7433C147.232 64.7433 146.151 64.4331 145.211 63.8127C144.277 63.1924 143.546 62.3356 143.018 61.2423C142.49 60.1429 142.226 58.8746 142.226 57.4374C142.226 55.9879 142.49 54.7134 143.018 53.614C143.546 52.5084 144.277 51.6486 145.211 51.0344C146.151 50.414 147.232 50.1038 148.454 50.1038C149.676 50.1038 150.754 50.414 151.688 51.0344C152.621 51.6547 153.352 52.5146 153.88 53.614C154.415 54.7134 154.682 55.9879 154.682 57.4374C154.682 58.8746 154.418 60.1429 153.889 61.2423C153.361 62.3356 152.627 63.1924 151.688 63.8127C150.754 64.4331 149.676 64.7433 148.454 64.7433ZM148.454 63.2415C149.437 63.2415 150.269 62.9774 150.951 62.4492C151.632 61.921 152.148 61.2178 152.498 60.3395C152.855 59.4612 153.033 58.4938 153.033 57.4374C153.033 56.381 152.855 55.4105 152.498 54.5261C152.148 53.6416 151.632 52.9322 150.951 52.3979C150.269 51.8635 149.437 51.5963 148.454 51.5963C147.477 51.5963 146.645 51.8635 145.957 52.3979C145.275 52.9322 144.756 53.6416 144.4 54.5261C144.05 55.4105 143.875 56.381 143.875 57.4374C143.875 58.4938 144.05 59.4612 144.4 60.3395C144.756 61.2178 145.275 61.921 145.957 62.4492C146.639 62.9774 147.471 63.2415 148.454 63.2415Z" fill="black"/>
<path d="M167.79 53.4021L166.288 53.8259C166.14 53.4021 165.932 53.0182 165.661 52.6743C165.391 52.3303 165.038 52.057 164.602 51.8543C164.172 51.6516 163.638 51.5503 162.999 51.5503C162.041 51.5503 161.254 51.7775 160.64 52.232C160.026 52.6865 159.719 53.2731 159.719 53.9917C159.719 54.5998 159.928 55.0942 160.345 55.475C160.769 55.8497 161.42 56.1476 162.299 56.3687L164.436 56.8938C165.621 57.1825 166.509 57.6401 167.099 58.2665C167.694 58.893 167.992 59.6792 167.992 60.6251C167.992 61.4235 167.771 62.1329 167.329 62.7533C166.887 63.3736 166.269 63.8619 165.477 64.2181C164.691 64.5682 163.779 64.7433 162.741 64.7433C161.359 64.7433 160.22 64.4331 159.323 63.8127C158.426 63.1863 157.852 62.2834 157.6 61.1041L159.175 60.7172C159.378 61.5586 159.774 62.1943 160.364 62.6243C160.96 63.0542 161.743 63.2692 162.713 63.2692C163.8 63.2692 164.669 63.0266 165.32 62.5414C165.972 62.05 166.297 61.4358 166.297 60.6988C166.297 60.1276 166.107 59.6485 165.726 59.2615C165.345 58.8685 164.768 58.5798 163.994 58.3955L161.681 57.8427C160.453 57.5479 159.544 57.0811 158.954 56.4424C158.365 55.8036 158.07 55.0113 158.07 54.0654C158.07 53.2854 158.282 52.6006 158.706 52.0109C159.129 51.4152 159.713 50.9484 160.456 50.6106C161.199 50.2728 162.047 50.1038 162.999 50.1038C164.295 50.1038 165.33 50.3987 166.104 50.9883C166.884 51.5718 167.446 52.3764 167.79 53.4021Z" fill="black"/>
</svg>
