<svg width="189" height="75" viewBox="0 0 189 75" fill="none" xmlns="http://www.w3.org/2000/svg">
<path d="M29.511 41.0343L0 56.6006L14.7447 31.2622L29.4894 5.94543" fill="#0E8CE9"/>
<path d="M30.873 41.0343L60.3624 56.6006L45.6393 31.2622L30.8947 5.94543L30.873 41.0343Z" fill="#045899"/>
<path d="M60.3624 57.6167L30.1163 42.0937L0 57.6167L30.1163 72.9667L60.3624 57.6167Z" fill="#0E8CE9"/>
<path d="M71.666 33.6187V14.7505H75.6552V23.0699H75.904L82.6939 14.7505H87.4755L80.4736 23.1988L87.5584 33.6187H82.7861L77.6176 25.8614L75.6552 28.2568V33.6187H71.666Z" fill="black"/>
<path d="M94.8896 33.8951C93.434 33.8951 92.181 33.6003 91.1307 33.0107C90.0866 32.4149 89.282 31.5734 88.7169 30.4863C88.1519 29.393 87.8693 28.1001 87.8693 26.6076C87.8693 25.152 88.1519 23.8745 88.7169 22.775C89.282 21.6756 90.0774 20.8188 91.1031 20.2046C92.1349 19.5904 93.3449 19.2833 94.733 19.2833C95.6666 19.2833 96.5357 19.4338 97.3403 19.7348C98.151 20.0296 98.8573 20.4749 99.4592 21.0706C100.067 21.6664 100.54 22.4157 100.878 23.3186C101.216 24.2153 101.385 25.2656 101.385 26.4694V27.5474H89.4355V25.1151H97.6904C97.6904 24.5501 97.5675 24.0495 97.3218 23.6134C97.0762 23.1773 96.7353 22.8365 96.2992 22.5908C95.8693 22.339 95.3687 22.2131 94.7975 22.2131C94.2017 22.2131 93.6735 22.3512 93.2128 22.6276C92.7583 22.8979 92.4021 23.2633 92.1441 23.724C91.8862 24.1785 91.7541 24.6852 91.748 25.2441V27.5566C91.748 28.2568 91.877 28.8617 92.1349 29.3715C92.399 29.8813 92.7706 30.2744 93.2497 30.5508C93.7288 30.8272 94.2969 30.9654 94.9541 30.9654C95.3902 30.9654 95.7894 30.904 96.1518 30.7811C96.5142 30.6583 96.8243 30.474 97.0823 30.2283C97.3403 29.9827 97.5368 29.6817 97.6719 29.3255L101.302 29.565C101.118 30.4372 100.74 31.1988 100.169 31.8498C99.6036 32.4947 98.8727 32.9984 97.976 33.3607C97.0854 33.717 96.0566 33.8951 94.8896 33.8951Z" fill="black"/>
<path d="M107.871 25.4376V33.6187H103.946V19.4676H107.686V21.9643H107.852C108.165 21.1413 108.691 20.4902 109.428 20.0112C110.165 19.5259 111.058 19.2833 112.109 19.2833C113.091 19.2833 113.948 19.4983 114.679 19.9282C115.41 20.3582 115.978 20.9724 116.383 21.7708C116.789 22.5631 116.992 23.509 116.992 24.6084V33.6187H113.067V25.3086C113.073 24.4426 112.852 23.767 112.403 23.2818C111.955 22.7904 111.338 22.5447 110.552 22.5447C110.023 22.5447 109.557 22.6583 109.151 22.8856C108.752 23.1129 108.439 23.4445 108.212 23.8806C107.99 24.3105 107.877 24.8295 107.871 25.4376Z" fill="black"/>
<path d="M124.01 25.4376V33.6187H120.085V19.4676H123.825V21.9643H123.991C124.304 21.1413 124.829 20.4902 125.566 20.0112C126.304 19.5259 127.197 19.2833 128.247 19.2833C129.23 19.2833 130.087 19.4983 130.818 19.9282C131.549 20.3582 132.117 20.9724 132.522 21.7708C132.928 22.5631 133.13 23.509 133.13 24.6084V33.6187H129.206V25.3086C129.212 24.4426 128.991 23.767 128.542 23.2818C128.094 22.7904 127.477 22.5447 126.69 22.5447C126.162 22.5447 125.695 22.6583 125.29 22.8856C124.891 23.1129 124.578 23.4445 124.35 23.8806C124.129 24.3105 124.016 24.8295 124.01 25.4376Z" fill="black"/>
<path d="M138.14 38.9254C137.642 38.9254 137.176 38.8855 136.74 38.8056C136.31 38.7319 135.953 38.6367 135.671 38.52L136.555 35.5903C137.016 35.7316 137.43 35.8083 137.799 35.8206C138.174 35.8329 138.496 35.7469 138.766 35.5626C139.043 35.3784 139.267 35.0651 139.439 34.6229L139.669 34.0241L134.593 19.4676H138.72L141.65 29.8598H141.797L144.755 19.4676H148.91L143.41 35.1481C143.146 35.9097 142.786 36.573 142.332 37.1381C141.883 37.7093 141.315 38.1484 140.627 38.4555C139.939 38.7688 139.11 38.9254 138.14 38.9254Z" fill="black"/>
<path d="M82.7769 50.2974C82.6724 49.2471 82.2087 48.4118 81.3857 47.7915C80.5627 47.1711 79.5277 46.8609 78.2809 46.8609C77.4026 46.8609 76.6287 47.0114 75.9593 47.3124C75.2959 47.6133 74.7739 48.031 74.3931 48.5653C74.0184 49.0936 73.8311 49.6955 73.8311 50.3711C73.8311 50.8686 73.9385 51.3047 74.1535 51.6793C74.3685 52.054 74.6572 52.3764 75.0195 52.6467C75.3881 52.9108 75.7934 53.138 76.2356 53.3284C76.684 53.5188 77.1354 53.6785 77.59 53.8075L79.58 54.3787C80.1819 54.5446 80.7838 54.7565 81.3857 55.0144C81.9876 55.2724 82.5373 55.5979 83.0348 55.991C83.5385 56.3779 83.9408 56.8539 84.2417 57.419C84.5488 57.9779 84.7024 58.6505 84.7024 59.4366C84.7024 60.4439 84.4413 61.3499 83.9193 62.1545C83.3972 62.9591 82.6479 63.5978 81.6713 64.0708C80.6947 64.5376 79.5247 64.771 78.1612 64.771C76.8775 64.771 75.7627 64.5591 74.8169 64.1353C73.871 63.7053 73.1278 63.1126 72.5873 62.3572C72.0468 61.6017 71.7428 60.7265 71.6752 59.7315H73.4441C73.5055 60.4746 73.7512 61.1042 74.1812 61.6201C74.6111 62.136 75.17 62.5291 75.8579 62.7994C76.5458 63.0635 77.3136 63.1955 78.1612 63.1955C79.1009 63.1955 79.9362 63.0389 80.6671 62.7257C81.4041 62.4063 81.9815 61.9641 82.3991 61.399C82.8229 60.8278 83.0348 60.1645 83.0348 59.409C83.0348 58.7702 82.869 58.2359 82.5373 57.806C82.2057 57.3699 81.7419 57.0044 81.1462 56.7096C80.5565 56.4148 79.8717 56.1538 79.0917 55.9265L76.8345 55.2632C75.3543 54.8209 74.2057 54.2098 73.3888 53.4298C72.572 52.6498 72.1635 51.6548 72.1635 50.4448C72.1635 49.4314 72.4338 48.5408 72.9743 47.773C73.5209 46.9991 74.2579 46.3972 75.1854 45.9673C76.119 45.5312 77.1662 45.3132 78.327 45.3132C79.5001 45.3132 80.5381 45.5281 81.441 45.9581C82.3438 46.388 83.0594 46.9807 83.5876 47.7362C84.122 48.4855 84.4076 49.3392 84.4444 50.2974H82.7769Z" fill="black"/>
<path d="M94.2286 64.7433C92.9081 64.7433 91.7656 64.4362 90.8014 63.822C89.8371 63.2017 89.0908 62.3449 88.5626 61.2516C88.0405 60.1522 87.7795 58.8869 87.7795 57.4559C87.7795 56.0309 88.0405 54.7657 88.5626 53.6601C89.0908 52.5484 89.8186 51.6793 90.7461 51.0528C91.6797 50.4202 92.7576 50.1039 93.9798 50.1039C94.7476 50.1039 95.4877 50.2452 96.2002 50.5277C96.9126 50.8041 97.5514 51.231 98.1165 51.8083C98.6877 52.3795 99.1391 53.1012 99.4708 53.9734C99.8024 54.8394 99.9683 55.8651 99.9683 57.0505V57.8612H88.9127V56.4148H98.2915C98.2915 55.5058 98.1072 54.6889 97.7387 53.9641C97.3763 53.2332 96.8696 52.6559 96.2186 52.2321C95.5737 51.8083 94.8274 51.5964 93.9798 51.5964C93.0831 51.5964 92.2939 51.8359 91.6121 52.315C90.9303 52.7941 90.396 53.4267 90.009 54.2129C89.6282 54.9991 89.4348 55.8589 89.4286 56.7925V57.6585C89.4286 58.7825 89.6221 59.7652 90.009 60.6067C90.4021 61.442 90.958 62.09 91.6766 62.5506C92.3952 63.0113 93.2459 63.2416 94.2286 63.2416C94.8981 63.2416 95.4846 63.1372 95.9883 62.9284C96.498 62.7195 96.9249 62.4401 97.2689 62.09C97.619 61.7337 97.8831 61.3437 98.0612 60.9199L99.6182 61.4266C99.4032 62.0224 99.05 62.5721 98.5587 63.0758C98.0735 63.5794 97.4654 63.9848 96.7345 64.2919C96.0098 64.5928 95.1744 64.7433 94.2286 64.7433Z" fill="black"/>
<path d="M108.981 70.05C108.017 70.05 107.172 69.9241 106.447 69.6723C105.723 69.4266 105.111 69.0888 104.614 68.6588C104.116 68.2289 103.729 67.7467 103.453 67.2124L104.798 66.3279C105.001 66.6842 105.271 67.0343 105.609 67.3782C105.953 67.7222 106.398 68.0078 106.945 68.235C107.498 68.4623 108.176 68.5759 108.981 68.5759C110.234 68.5759 111.244 68.2627 112.012 67.6362C112.786 67.0097 113.173 66.0362 113.173 64.7157V61.528H113.025C112.835 61.9579 112.562 62.3879 112.205 62.8178C111.849 63.2416 111.382 63.5948 110.805 63.8773C110.234 64.1598 109.524 64.3011 108.677 64.3011C107.547 64.3011 106.542 64.0216 105.664 63.4627C104.792 62.9038 104.104 62.1053 103.6 61.0673C103.103 60.0232 102.854 58.7795 102.854 57.3361C102.854 55.905 103.097 54.6459 103.582 53.5588C104.073 52.4716 104.758 51.624 105.637 51.016C106.515 50.4079 107.537 50.1039 108.704 50.1039C109.57 50.1039 110.289 50.2575 110.86 50.5646C111.431 50.8655 111.889 51.2402 112.233 51.6885C112.583 52.1369 112.856 52.573 113.053 52.9968H113.219V50.2974H114.822V64.817C114.822 66.0147 114.567 67.0005 114.057 67.7744C113.547 68.5483 112.853 69.1195 111.975 69.488C111.097 69.8627 110.099 70.05 108.981 70.05ZM108.87 62.7994C109.779 62.7994 110.556 62.5813 111.201 62.1453C111.846 61.703 112.341 61.0704 112.684 60.2474C113.028 59.4244 113.2 58.4447 113.2 57.3084C113.2 56.2029 113.031 55.2232 112.694 54.3695C112.356 53.5096 111.865 52.834 111.22 52.3427C110.581 51.8452 109.798 51.5964 108.87 51.5964C107.924 51.5964 107.126 51.8513 106.475 52.3611C105.824 52.8709 105.333 53.5588 105.001 54.4248C104.669 55.2847 104.503 56.2459 104.503 57.3084C104.503 58.3894 104.672 59.3445 105.01 60.1737C105.348 60.9967 105.842 61.6416 106.493 62.1084C107.144 62.5691 107.937 62.7994 108.87 62.7994Z" fill="black"/>
<path d="M128.155 59.0405V50.2974H129.795V64.4485H128.155V62.0992H128.026C127.695 62.8239 127.17 63.4289 126.451 63.9142C125.732 64.3932 124.854 64.6328 123.816 64.6328C122.913 64.6328 122.112 64.4362 121.411 64.0431C120.711 63.6439 120.162 63.0604 119.762 62.2927C119.363 61.5249 119.163 60.5821 119.163 59.4643V50.2974H120.803V59.3629C120.803 60.4685 121.129 61.3591 121.78 62.0347C122.431 62.7042 123.266 63.0389 124.286 63.0389C124.925 63.0389 125.539 62.8854 126.128 62.5783C126.718 62.2712 127.203 61.8228 127.584 61.2332C127.965 60.6374 128.155 59.9065 128.155 59.0405Z" fill="black"/>
<path d="M134.137 64.4485V50.2974H135.731V52.4716H135.85C136.133 51.7592 136.624 51.1849 137.325 50.7488C138.031 50.3066 138.829 50.0855 139.72 50.0855C139.855 50.0855 140.006 50.0886 140.171 50.0947C140.337 50.1008 140.475 50.107 140.586 50.1131V51.7807C140.512 51.7684 140.383 51.75 140.199 51.7254C140.015 51.7008 139.815 51.6885 139.6 51.6885C138.863 51.6885 138.206 51.8452 137.629 52.1584C137.057 52.4655 136.606 52.8924 136.274 53.439C135.943 53.9856 135.777 54.6091 135.777 55.3092V64.4485H134.137Z" fill="black"/>
<path d="M148.454 64.7433C147.232 64.7433 146.151 64.4331 145.211 63.8128C144.277 63.1925 143.546 62.3357 143.018 61.2424C142.49 60.143 142.226 58.8747 142.226 57.4374C142.226 55.9879 142.49 54.7135 143.018 53.614C143.546 52.5085 144.277 51.6486 145.211 51.0344C146.151 50.4141 147.232 50.1039 148.454 50.1039C149.676 50.1039 150.754 50.4141 151.688 51.0344C152.621 51.6548 153.352 52.5146 153.88 53.614C154.415 54.7135 154.682 55.9879 154.682 57.4374C154.682 58.8747 154.418 60.143 153.889 61.2424C153.361 62.3357 152.627 63.1925 151.688 63.8128C150.754 64.4331 149.676 64.7433 148.454 64.7433ZM148.454 63.2416C149.437 63.2416 150.269 62.9775 150.951 62.4493C151.632 61.9211 152.148 61.2178 152.498 60.3395C152.855 59.4612 153.033 58.4939 153.033 57.4374C153.033 56.381 152.855 55.4106 152.498 54.5261C152.148 53.6417 151.632 52.9323 150.951 52.3979C150.269 51.8636 149.437 51.5964 148.454 51.5964C147.477 51.5964 146.645 51.8636 145.957 52.3979C145.275 52.9323 144.756 53.6417 144.4 54.5261C144.05 55.4106 143.875 56.381 143.875 57.4374C143.875 58.4939 144.05 59.4612 144.4 60.3395C144.756 61.2178 145.275 61.9211 145.957 62.4493C146.639 62.9775 147.471 63.2416 148.454 63.2416Z" fill="black"/>
<path d="M167.79 53.4021L166.288 53.8259C166.14 53.4021 165.932 53.0183 165.661 52.6743C165.391 52.3304 165.038 52.0571 164.602 51.8544C164.172 51.6517 163.638 51.5503 162.999 51.5503C162.041 51.5503 161.254 51.7776 160.64 52.2321C160.026 52.6866 159.719 53.2732 159.719 53.9918C159.719 54.5998 159.928 55.0943 160.345 55.4751C160.769 55.8497 161.42 56.1476 162.299 56.3687L164.436 56.8939C165.621 57.1825 166.509 57.6401 167.099 58.2666C167.694 58.8931 167.992 59.6793 167.992 60.6251C167.992 61.4236 167.771 62.133 167.329 62.7533C166.887 63.3737 166.269 63.8619 165.477 64.2182C164.691 64.5683 163.779 64.7433 162.741 64.7433C161.359 64.7433 160.22 64.4331 159.323 63.8128C158.426 63.1863 157.852 62.2835 157.6 61.1042L159.175 60.7172C159.378 61.5587 159.774 62.1944 160.364 62.6243C160.96 63.0543 161.743 63.2692 162.713 63.2692C163.8 63.2692 164.669 63.0266 165.32 62.5414C165.972 62.0501 166.297 61.4359 166.297 60.6988C166.297 60.1276 166.107 59.6485 165.726 59.2616C165.345 58.8685 164.768 58.5798 163.994 58.3956L161.681 57.8428C160.453 57.548 159.544 57.0812 158.954 56.4424C158.365 55.8037 158.07 55.0113 158.07 54.0655C158.07 53.2854 158.282 52.6006 158.706 52.011C159.129 51.4152 159.713 50.9484 160.456 50.6106C161.199 50.2728 162.047 50.1039 162.999 50.1039C164.295 50.1039 165.33 50.3987 166.104 50.9883C166.884 51.5718 167.446 52.3764 167.79 53.4021Z" fill="black"/>
</svg>
