<svg width="1920" height="112" viewBox="0 0 1920 112" fill="none" xmlns="http://www.w3.org/2000/svg">
<g filter="url(#filter0_d_56_91)">
<rect x="1920" y="107" width="1920" height="107" transform="rotate(-180 1920 107)" fill="white"/>
</g>
<path d="M895.511 55.0342L866 70.6004L880.745 45.2621L895.489 19.9453" fill="#0E8CE9"/>
<path d="M896.873 55.0342L926.362 70.6004L911.639 45.2621L896.895 19.9453L896.873 55.0342Z" fill="#045899"/>
<path d="M926.362 71.6165L896.116 56.0935L866 71.6165L896.116 86.9665L926.362 71.6165Z" fill="#0E8CE9"/>
<path d="M937.666 47.6187V28.7505H941.655V37.0698H941.904L948.694 28.7505H953.475L946.474 37.1988L953.558 47.6187H948.786L943.618 39.8613L941.655 42.2567V47.6187H937.666Z" fill="black"/>
<path d="M960.89 47.895C959.434 47.895 958.181 47.6002 957.131 47.0106C956.087 46.4148 955.282 45.5734 954.717 44.4862C954.152 43.393 953.869 42.1001 953.869 40.6076C953.869 39.1519 954.152 37.8744 954.717 36.775C955.282 35.6756 956.077 34.8188 957.103 34.2046C958.135 33.5904 959.345 33.2833 960.733 33.2833C961.667 33.2833 962.536 33.4337 963.34 33.7347C964.151 34.0295 964.857 34.4748 965.459 35.0706C966.067 35.6664 966.54 36.4157 966.878 37.3186C967.216 38.2153 967.385 39.2656 967.385 40.4694V41.5473H955.436V39.1151H963.69C963.69 38.55 963.568 38.0494 963.322 37.6134C963.076 37.1773 962.735 36.8364 962.299 36.5907C961.869 36.3389 961.369 36.213 960.797 36.213C960.202 36.213 959.673 36.3512 959.213 36.6276C958.758 36.8978 958.402 37.2633 958.144 37.7239C957.886 38.1784 957.754 38.6851 957.748 39.2441V41.5565C957.748 42.2567 957.877 42.8617 958.135 43.3715C958.399 43.8813 958.771 44.2743 959.25 44.5507C959.729 44.8271 960.297 44.9653 960.954 44.9653C961.39 44.9653 961.789 44.9039 962.152 44.7811C962.514 44.6582 962.824 44.474 963.082 44.2283C963.34 43.9826 963.537 43.6816 963.672 43.3254L967.302 43.5649C967.118 44.4371 966.74 45.1987 966.169 45.8498C965.604 46.4947 964.873 46.9983 963.976 47.3607C963.085 47.7169 962.057 47.895 960.89 47.895Z" fill="black"/>
<path d="M973.871 39.4375V47.6187H969.946V33.4675H973.686V35.9642H973.852C974.165 35.1412 974.691 34.4902 975.428 34.0111C976.165 33.5259 977.058 33.2833 978.109 33.2833C979.091 33.2833 979.948 33.4982 980.679 33.9282C981.41 34.3581 981.978 34.9723 982.383 35.7708C982.789 36.5631 982.992 37.509 982.992 38.6084V47.6187H979.067V39.3086C979.073 38.4425 978.852 37.7669 978.403 37.2817C977.955 36.7903 977.338 36.5447 976.552 36.5447C976.023 36.5447 975.557 36.6583 975.151 36.8855C974.752 37.1128 974.439 37.4445 974.212 37.8805C973.99 38.3105 973.877 38.8295 973.871 39.4375Z" fill="black"/>
<path d="M990.01 39.4375V47.6187H986.085V33.4675H989.825V35.9642H989.991C990.304 35.1412 990.829 34.4902 991.566 34.0111C992.304 33.5259 993.197 33.2833 994.247 33.2833C995.23 33.2833 996.087 33.4982 996.818 33.9282C997.549 34.3581 998.117 34.9723 998.522 35.7708C998.928 36.5631 999.13 37.509 999.13 38.6084V47.6187H995.206V39.3086C995.212 38.4425 994.991 37.7669 994.542 37.2817C994.094 36.7903 993.477 36.5447 992.69 36.5447C992.162 36.5447 991.695 36.6583 991.29 36.8855C990.891 37.1128 990.578 37.4445 990.35 37.8805C990.129 38.3105 990.016 38.8295 990.01 39.4375Z" fill="black"/>
<path d="M1004.14 52.9253C1003.64 52.9253 1003.18 52.8854 1002.74 52.8056C1002.31 52.7318 1001.95 52.6366 1001.67 52.5199L1002.56 49.5902C1003.02 49.7315 1003.43 49.8083 1003.8 49.8206C1004.17 49.8328 1004.5 49.7468 1004.77 49.5626C1005.04 49.3783 1005.27 49.0651 1005.44 48.6229L1005.67 48.024L1000.59 33.4675H1004.72L1007.65 43.8598H1007.8L1010.75 33.4675H1014.91L1009.41 49.148C1009.15 49.9096 1008.79 50.5729 1008.33 51.138C1007.88 51.7092 1007.32 52.1484 1006.63 52.4555C1005.94 52.7687 1005.11 52.9253 1004.14 52.9253Z" fill="black"/>
<path d="M948.777 64.2973C948.672 63.247 948.209 62.4117 947.386 61.7914C946.563 61.171 945.528 60.8609 944.281 60.8609C943.403 60.8609 942.629 61.0114 941.959 61.3123C941.296 61.6133 940.774 62.0309 940.393 62.5653C940.018 63.0935 939.831 63.6954 939.831 64.371C939.831 64.8685 939.939 65.3046 940.154 65.6793C940.368 66.0539 940.657 66.3764 941.02 66.6466C941.388 66.9107 941.793 67.138 942.236 67.3284C942.684 67.5188 943.135 67.6785 943.59 67.8075L945.58 68.3787C946.182 68.5445 946.784 68.7564 947.386 69.0144C947.988 69.2723 948.537 69.5978 949.035 69.9909C949.538 70.3779 949.941 70.8539 950.242 71.4189C950.549 71.9779 950.702 72.6504 950.702 73.4366C950.702 74.4439 950.441 75.3498 949.919 76.1544C949.397 76.959 948.648 77.5978 947.671 78.0707C946.695 78.5375 945.525 78.7709 944.161 78.7709C942.877 78.7709 941.763 78.559 940.817 78.1352C939.871 77.7053 939.128 77.1126 938.587 76.3571C938.047 75.6016 937.743 74.7264 937.675 73.7314H939.444C939.506 74.4746 939.751 75.1041 940.181 75.6201C940.611 76.136 941.17 76.5291 941.858 76.7993C942.546 77.0634 943.314 77.1955 944.161 77.1955C945.101 77.1955 945.936 77.0389 946.667 76.7256C947.404 76.4062 947.981 75.964 948.399 75.3989C948.823 74.8277 949.035 74.1644 949.035 73.4089C949.035 72.7702 948.869 72.2358 948.537 71.8059C948.206 71.3698 947.742 71.0044 947.146 70.7095C946.557 70.4147 945.872 70.1537 945.092 69.9264L942.834 69.2631C941.354 68.8209 940.206 68.2098 939.389 67.4297C938.572 66.6497 938.164 65.6547 938.164 64.4447C938.164 63.4313 938.434 62.5407 938.974 61.773C939.521 60.9991 940.258 60.3972 941.185 59.9672C942.119 59.5311 943.166 59.3131 944.327 59.3131C945.5 59.3131 946.538 59.5281 947.441 59.958C948.344 60.3879 949.059 60.9806 949.588 61.7361C950.122 62.4854 950.408 63.3392 950.444 64.2973H948.777Z" fill="black"/>
<path d="M960.229 78.7433C958.908 78.7433 957.766 78.4362 956.801 77.822C955.837 77.2016 955.091 76.3448 954.563 75.2515C954.041 74.1521 953.779 72.8869 953.779 71.4558C953.779 70.0309 954.041 68.7656 954.563 67.66C955.091 66.5484 955.819 65.6793 956.746 65.0528C957.68 64.4202 958.758 64.1038 959.98 64.1038C960.748 64.1038 961.488 64.2451 962.2 64.5276C962.913 64.804 963.551 65.2309 964.116 65.8082C964.688 66.3795 965.139 67.1011 965.471 67.9733C965.802 68.8393 965.968 69.865 965.968 71.0504V71.8612H954.913V70.4147H964.291C964.291 69.5057 964.107 68.6888 963.739 67.9641C963.376 67.2332 962.87 66.6558 962.219 66.232C961.574 65.8082 960.827 65.5963 959.98 65.5963C959.083 65.5963 958.294 65.8359 957.612 66.315C956.93 66.794 956.396 67.4267 956.009 68.2128C955.628 68.999 955.435 69.8589 955.429 70.7925V71.6585C955.429 72.7825 955.622 73.7652 956.009 74.6066C956.402 75.4419 956.958 76.0899 957.677 76.5506C958.395 77.0112 959.246 77.2415 960.229 77.2415C960.898 77.2415 961.485 77.1371 961.988 76.9283C962.498 76.7195 962.925 76.44 963.269 76.0899C963.619 75.7337 963.883 75.3437 964.061 74.9199L965.618 75.4266C965.403 76.0224 965.05 76.5721 964.559 77.0757C964.073 77.5793 963.465 77.9847 962.735 78.2918C962.01 78.5928 961.174 78.7433 960.229 78.7433Z" fill="black"/>
<path d="M974.981 84.0499C974.017 84.0499 973.172 83.924 972.447 83.6722C971.723 83.4265 971.111 83.0887 970.614 82.6588C970.116 82.2288 969.729 81.7467 969.453 81.2123L970.798 80.3279C971.001 80.6841 971.271 81.0342 971.609 81.3782C971.953 81.7221 972.398 82.0077 972.945 82.235C973.498 82.4622 974.176 82.5759 974.981 82.5759C976.234 82.5759 977.244 82.2626 978.012 81.6361C978.786 81.0096 979.173 80.0361 979.173 78.7156V75.5279H979.025C978.835 75.9579 978.562 76.3878 978.205 76.8177C977.849 77.2415 977.382 77.5947 976.805 77.8772C976.234 78.1598 975.524 78.301 974.677 78.301C973.547 78.301 972.542 78.0216 971.664 77.4627C970.792 76.9037 970.104 76.1053 969.6 75.0673C969.103 74.0231 968.854 72.7794 968.854 71.336C968.854 69.9049 969.097 68.6458 969.582 67.5587C970.073 66.4716 970.758 65.624 971.637 65.0159C972.515 64.4079 973.537 64.1038 974.704 64.1038C975.57 64.1038 976.289 64.2574 976.86 64.5645C977.431 64.8655 977.889 65.2401 978.233 65.6885C978.583 66.1368 978.856 66.5729 979.053 66.9967H979.219V64.2973H980.822V78.817C980.822 80.0146 980.567 81.0004 980.057 81.7743C979.547 82.5482 978.853 83.1194 977.975 83.4879C977.097 83.8626 976.099 84.0499 974.981 84.0499ZM974.87 76.7993C975.779 76.7993 976.556 76.5813 977.201 76.1452C977.846 75.703 978.341 75.0704 978.684 74.2473C979.028 73.4243 979.2 72.4447 979.2 71.3084C979.2 70.2028 979.031 69.2232 978.694 68.3694C978.356 67.5096 977.865 66.834 977.22 66.3426C976.581 65.8451 975.798 65.5963 974.87 65.5963C973.924 65.5963 973.126 65.8512 972.475 66.361C971.824 66.8708 971.333 67.5587 971.001 68.4247C970.669 69.2846 970.503 70.2458 970.503 71.3084C970.503 72.3894 970.672 73.3445 971.01 74.1736C971.348 74.9966 971.842 75.6416 972.493 76.1083C973.144 76.569 973.937 76.7993 974.87 76.7993Z" fill="black"/>
<path d="M994.155 73.0404V64.2973H995.795V78.4484H994.155V76.0991H994.026C993.695 76.8239 993.17 77.4289 992.451 77.9141C991.732 78.3932 990.854 78.6327 989.816 78.6327C988.913 78.6327 988.112 78.4362 987.411 78.0431C986.711 77.6438 986.162 77.0604 985.762 76.2926C985.363 75.5249 985.163 74.5821 985.163 73.4642V64.2973H986.803V73.3629C986.803 74.4684 987.129 75.359 987.78 76.0346C988.431 76.7041 989.266 77.0389 990.286 77.0389C990.925 77.0389 991.539 76.8853 992.128 76.5782C992.718 76.2711 993.203 75.8227 993.584 75.2331C993.965 74.6373 994.155 73.9064 994.155 73.0404Z" fill="black"/>
<path d="M1000.14 78.4484V64.2973H1001.73V66.4716H1001.85C1002.13 65.7591 1002.62 65.1848 1003.32 64.7488C1004.03 64.3065 1004.83 64.0854 1005.72 64.0854C1005.86 64.0854 1006.01 64.0885 1006.17 64.0946C1006.34 64.1008 1006.48 64.1069 1006.59 64.1131V65.7806C1006.51 65.7683 1006.38 65.7499 1006.2 65.7253C1006.01 65.7008 1005.82 65.6885 1005.6 65.6885C1004.86 65.6885 1004.21 65.8451 1003.63 66.1583C1003.06 66.4654 1002.61 66.8923 1002.27 67.4389C1001.94 67.9856 1001.78 68.609 1001.78 69.3092V78.4484H1000.14Z" fill="black"/>
<path d="M1014.45 78.7433C1013.23 78.7433 1012.15 78.4331 1011.21 77.8127C1010.28 77.1924 1009.55 76.3356 1009.02 75.2423C1008.49 74.1429 1008.23 72.8746 1008.23 71.4374C1008.23 69.9879 1008.49 68.7134 1009.02 67.614C1009.55 66.5084 1010.28 65.6486 1011.21 65.0344C1012.15 64.414 1013.23 64.1038 1014.45 64.1038C1015.68 64.1038 1016.75 64.414 1017.69 65.0344C1018.62 65.6547 1019.35 66.5146 1019.88 67.614C1020.41 68.7134 1020.68 69.9879 1020.68 71.4374C1020.68 72.8746 1020.42 74.1429 1019.89 75.2423C1019.36 76.3356 1018.63 77.1924 1017.69 77.8127C1016.75 78.4331 1015.68 78.7433 1014.45 78.7433ZM1014.45 77.2415C1015.44 77.2415 1016.27 76.9774 1016.95 76.4492C1017.63 75.921 1018.15 75.2178 1018.5 74.3395C1018.85 73.4612 1019.03 72.4938 1019.03 71.4374C1019.03 70.381 1018.85 69.4105 1018.5 68.5261C1018.15 67.6416 1017.63 66.9322 1016.95 66.3979C1016.27 65.8635 1015.44 65.5963 1014.45 65.5963C1013.48 65.5963 1012.65 65.8635 1011.96 66.3979C1011.28 66.9322 1010.76 67.6416 1010.4 68.5261C1010.05 69.4105 1009.87 70.381 1009.87 71.4374C1009.87 72.4938 1010.05 73.4612 1010.4 74.3395C1010.76 75.2178 1011.28 75.921 1011.96 76.4492C1012.64 76.9774 1013.47 77.2415 1014.45 77.2415Z" fill="black"/>
<path d="M1033.79 67.4021L1032.29 67.8259C1032.14 67.4021 1031.93 67.0182 1031.66 66.6743C1031.39 66.3303 1031.04 66.057 1030.6 65.8543C1030.17 65.6516 1029.64 65.5503 1029 65.5503C1028.04 65.5503 1027.25 65.7775 1026.64 66.232C1026.03 66.6865 1025.72 67.2731 1025.72 67.9917C1025.72 68.5998 1025.93 69.0942 1026.35 69.475C1026.77 69.8497 1027.42 70.1476 1028.3 70.3687L1030.44 70.8938C1031.62 71.1825 1032.51 71.6401 1033.1 72.2665C1033.69 72.893 1033.99 73.6792 1033.99 74.6251C1033.99 75.4235 1033.77 76.1329 1033.33 76.7533C1032.89 77.3736 1032.27 77.8619 1031.48 78.2181C1030.69 78.5682 1029.78 78.7433 1028.74 78.7433C1027.36 78.7433 1026.22 78.4331 1025.32 77.8127C1024.43 77.1863 1023.85 76.2834 1023.6 75.1041L1025.18 74.7172C1025.38 75.5586 1025.77 76.1943 1026.36 76.6243C1026.96 77.0542 1027.74 77.2692 1028.71 77.2692C1029.8 77.2692 1030.67 77.0266 1031.32 76.5414C1031.97 76.05 1032.3 75.4358 1032.3 74.6988C1032.3 74.1276 1032.11 73.6485 1031.73 73.2615C1031.35 72.8685 1030.77 72.5798 1029.99 72.3955L1027.68 71.8427C1026.45 71.5479 1025.54 71.0811 1024.95 70.4424C1024.36 69.8036 1024.07 69.0113 1024.07 68.0654C1024.07 67.2854 1024.28 66.6006 1024.71 66.0109C1025.13 65.4152 1025.71 64.9484 1026.46 64.6106C1027.2 64.2728 1028.05 64.1038 1029 64.1038C1030.29 64.1038 1031.33 64.3987 1032.1 64.9883C1032.88 65.5718 1033.45 66.3764 1033.79 67.4021Z" fill="black"/>
<defs>
<filter id="filter0_d_56_91" x="-3" y="-1" width="1926" height="113" filterUnits="userSpaceOnUse" color-interpolation-filters="sRGB">
<feFlood flood-opacity="0" result="BackgroundImageFix"/>
<feColorMatrix in="SourceAlpha" type="matrix" values="0 0 0 0 0 0 0 0 0 0 0 0 0 0 0 0 0 0 127 0" result="hardAlpha"/>
<feOffset dy="2"/>
<feGaussianBlur stdDeviation="1.5"/>
<feComposite in2="hardAlpha" operator="out"/>
<feColorMatrix type="matrix" values="0 0 0 0 0 0 0 0 0 0 0 0 0 0 0 0 0 0 0.05 0"/>
<feBlend mode="normal" in2="BackgroundImageFix" result="effect1_dropShadow_56_91"/>
<feBlend mode="normal" in="SourceGraphic" in2="effect1_dropShadow_56_91" result="shape"/>
</filter>
</defs>
</svg>
