<svg width="34" height="34" viewBox="0 0 34 34" fill="none" xmlns="http://www.w3.org/2000/svg">
<path d="M20.256 27.8888C20.256 26.0496 20.2542 24.2094 20.256 22.3701C20.256 21.6978 20.1919 21.7527 20.8923 21.7509C21.6687 21.7491 22.446 21.7427 23.2225 21.7546C23.4871 21.7591 23.5969 21.6849 23.6372 21.4001C23.8258 20.0783 24.0291 18.7584 24.2598 17.444C24.3221 17.0877 24.204 17.0346 23.9 17.0364C22.5413 17.0455 21.1816 17.041 19.8229 17.04C19.4726 17.04 19.2971 16.863 19.2965 16.5088C19.2965 15.6175 19.2965 14.7263 19.2965 13.8351C19.2983 12.1909 20.2249 11.2328 21.8747 11.1989C22.8104 11.1797 23.748 11.1842 24.6837 11.1971C24.9639 11.2007 25.0619 11.1155 25.0582 10.8279C25.0445 9.6857 25.0518 8.54257 25.0536 7.40035C25.0536 7.22173 25.0619 7.05777 24.8165 7.02663C22.9359 6.78939 21.0507 6.52376 19.1683 6.95427C16.6559 7.52858 15.0308 9.35503 14.6765 11.9253C14.4796 13.3578 14.5675 14.7987 14.5474 16.2367C14.5455 16.3741 14.5345 16.5124 14.5492 16.648C14.5831 16.9521 14.4466 17.0483 14.1555 17.0455C13.2189 17.0355 12.2822 17.0419 11.3456 17.0419C10.6186 17.0419 10.7111 17.0043 10.7093 17.695C10.7056 18.9178 10.7166 20.1406 10.7028 21.3625C10.6992 21.6575 10.7788 21.7637 11.0874 21.7582C12.1037 21.7408 13.12 21.761 14.1363 21.7463C14.4421 21.7417 14.5528 21.8306 14.5519 22.1521C14.5428 25.9909 14.5428 29.8298 14.5519 33.6695C14.5519 33.9865 14.4357 34.0323 14.1646 33.9801C8.56588 32.9038 4.41373 29.8628 1.78145 24.7974C0.832908 22.9636 0.316522 20.9888 0.104107 18.9343C-0.38298 14.2152 0.83657 9.97881 3.81678 6.30026C6.6395 2.81682 10.2972 0.710997 14.768 0.154085C20.2862 -0.53381 25.0664 1.09479 29.0208 4.995C31.7328 7.67056 33.3744 10.9433 33.8432 14.7318C34.4923 19.9876 33.1373 24.6719 29.5729 28.6463C27.164 31.3329 24.1966 33.1071 20.6817 33.9489C20.2688 34.0478 20.2578 34.0378 20.2578 33.6127C20.2578 31.7048 20.2578 29.7968 20.2578 27.8888H20.256Z" fill="#011626"/>
</svg>
