<svg width="34" height="34" viewBox="0 0 34 34" fill="none" xmlns="http://www.w3.org/2000/svg">
<path d="M15.5383 0H18.4597C18.5243 0.013954 18.5882 0.0338884 18.6534 0.0405331C21.2628 0.293699 23.7186 1.05586 25.9095 2.4878C31.6846 6.26204 34.4005 11.6111 33.9521 18.5077C33.7804 21.1457 32.9301 23.5903 31.5429 25.8356C27.7964 31.8969 20.9587 35.0479 13.9488 33.6857C7.09581 32.3541 2.66999 28.1685 0.580173 21.5238C0.264804 20.5204 0.136394 19.4758 0 18.4359V15.5182C0.079175 14.984 0.146374 14.4471 0.240186 13.9155C1.36727 7.54315 6.24817 2.23663 12.5116 0.557497C13.507 0.290377 14.521 0.136882 15.5389 0H15.5383ZM14.4132 19.4592H14.4045C14.4045 21.349 14.4045 23.2388 14.4045 25.1292C14.4045 25.6256 14.4172 25.6395 14.8982 25.6395C15.9162 25.6395 16.9341 25.6395 17.9528 25.6395C18.2788 25.6395 18.442 25.4712 18.4424 25.1345C18.4424 22.9903 18.4451 20.8467 18.4418 18.7024C18.4405 18.0738 18.5882 17.497 18.994 17.006C19.5749 16.3036 20.3253 16.0418 21.2156 16.2066C22.0845 16.3674 22.5296 16.9575 22.7412 17.7681C22.8197 18.0685 22.8683 18.3721 22.8683 18.6845C22.8683 20.8394 22.8709 22.9949 22.8729 25.1498C22.8729 25.4763 23.0408 25.6398 23.3766 25.6402C24.4165 25.6402 25.4571 25.6409 26.497 25.6402C26.9301 25.6402 26.9395 25.6302 26.9395 25.1884C26.9401 22.9557 26.9368 20.7231 26.9415 18.4911C26.9428 17.9588 26.8975 17.4319 26.8017 16.9096C26.2468 13.8982 24.014 12.6776 21.3932 13.0424C20.2848 13.1965 19.4158 13.772 18.7558 14.6703C18.69 14.76 18.6474 14.9421 18.5077 14.8883C18.3846 14.8411 18.4471 14.671 18.4438 14.5554C18.4365 14.2683 18.4252 13.9799 18.4451 13.6936C18.4677 13.3726 18.3393 13.2683 18.0226 13.2723C16.9607 13.2862 15.8982 13.2763 14.8357 13.2783C14.4405 13.2789 14.4118 13.3155 14.4118 13.7241C14.4118 15.6358 14.4118 17.5482 14.4118 19.4599L14.4132 19.4592ZM12.0067 19.4978C12.0067 17.5635 12.0013 15.6292 12.012 13.6956C12.014 13.3799 11.9082 13.267 11.5895 13.2716C10.5163 13.2856 9.44245 13.2829 8.36926 13.2736C8.09049 13.271 7.97006 13.362 7.97073 13.6544C7.97605 17.5229 7.97605 21.3909 7.97073 25.2595C7.97073 25.5452 8.07385 25.6482 8.36128 25.6449C9.43446 25.6336 10.5083 25.6409 11.5815 25.6395C11.9867 25.6395 12.0067 25.6203 12.0067 25.201C12.008 23.2999 12.0067 21.3988 12.0067 19.4978ZM9.96873 11.4702C11.68 11.4749 12.7299 10.0682 12.1238 8.56711C11.7658 7.68136 11.0353 7.31258 10.1331 7.27337C9.0499 7.2262 8.07119 7.74515 7.79042 8.82427C7.4185 10.2569 8.4185 11.4662 9.96873 11.4709V11.4702Z" fill="#011626"/>
</svg>
